<svg xmlns="http://www.w3.org/2000/svg" viewBox="0 0 1200 675"><style>.st0{fill:#FFFFFF;} .st1{fill:#343435;} .st2{fill:#494949;} .st3{fill:#C4C4C4;} .st4{fill:#21211F;} .st5{fill:#E6E6E6;} .st6{opacity:0.56;fill:url(#SVGID_1_);} .st7{fill:#39B54A;} .st8{opacity:0.56;fill:url(#SVGID_2_);} .st9{opacity:0.56;fill:url(#SVGID_3_);} .st10{opacity:0.56;fill:url(#SVGID_4_);} .st11{opacity:0.56;fill:url(#SVGID_5_);} .st12{opacity:0.56;fill:url(#SVGID_6_);} .st13{opacity:0.56;fill:url(#SVGID_7_);} .st14{opacity:0.56;fill:url(#SVGID_8_);} .st15{opacity:0.56;fill:url(#SVGID_9_);} .st16{opacity:0.56;fill:url(#SVGID_10_);} .st17{opacity:0.56;fill:url(#SVGID_11_);} .st18{opacity:0.56;fill:url(#SVGID_12_);} .st19{opacity:0.56;fill:url(#SVGID_13_);} .st20{opacity:0.56;fill:url(#SVGID_14_);} .st21{opacity:0.56;fill:url(#SVGID_15_);} .st22{opacity:0.56;fill:url(#SVGID_16_);} .st23{opacity:0.56;fill:url(#SVGID_17_);} .st24{opacity:0.56;fill:url(#SVGID_18_);} .st25{opacity:0.56;fill:url(#SVGID_19_);} .st26{opacity:0.56;fill:url(#SVGID_20_);} .st27{opacity:0.56;fill:url(#SVGID_21_);} .st28{opacity:0.56;fill:url(#SVGID_22_);} .st29{opacity:0.56;fill:url(#SVGID_23_);} .st30{opacity:0.56;fill:url(#SVGID_24_);} .st31{opacity:0.56;fill:url(#SVGID_25_);} .st32{opacity:0.56;fill:url(#SVGID_26_);} .st33{opacity:0.56;fill:url(#SVGID_27_);} .st34{opacity:0.56;fill:url(#SVGID_28_);} .st35{opacity:0.56;fill:url(#SVGID_29_);} .st36{opacity:0.56;fill:url(#SVGID_30_);} .st37{opacity:0.56;fill:url(#SVGID_31_);} .st38{opacity:0.56;fill:url(#SVGID_32_);} .st39{opacity:0.56;fill:url(#SVGID_33_);} .st40{fill:none;stroke:#000000;stroke-miterlimit:10;} .st41{fill:none;stroke:#CCCCCC;stroke-width:2;stroke-miterlimit:10;} .st42{fill:#CCCCCC;} .st43{fill:none;stroke:#666666;stroke-width:2;stroke-miterlimit:10;} .st44{fill:#666666;} .st45{fill:none;stroke:#EF524F;stroke-width:2;stroke-miterlimit:10;stroke-dasharray:12,12;} .st46{fill:#EF524F;} .st47{fill:#62757C;} .st48{fill:#23363A;} .st49{fill:#FEFBF6;} .st50{fill:#F7F7F7;stroke:#23363A;stroke-width:6;stroke-miterlimit:10;} .st51{fill:none;stroke:#23363A;stroke-width:3;stroke-miterlimit:10;} .st52{fill:#F7F7F7;} .st53{fill:#23363A;stroke:#F7F7F7;stroke-width:2;stroke-miterlimit:10;} .st54{fill:#37474F;} .st55{fill:#EDEAE2;} .st56{fill:#4C626D;} .st57{fill:#E8EDEF;} .st58{fill:#515151;} .st59{fill:#939393;} .st60{opacity:0.56;fill:url(#SVGID_34_);} .st61{opacity:0.56;fill:url(#SVGID_35_);} .st62{opacity:0.56;fill:url(#SVGID_36_);} .st63{opacity:0.56;fill:url(#SVGID_37_);} .st64{opacity:0.56;fill:url(#SVGID_38_);} .st65{opacity:0.56;fill:url(#SVGID_39_);} .st66{opacity:0.56;fill:url(#SVGID_40_);} .st67{opacity:0.56;fill:url(#SVGID_41_);} .st68{opacity:0.56;fill:url(#SVGID_42_);} .st69{opacity:0.56;fill:url(#SVGID_43_);} .st70{opacity:0.56;fill:url(#SVGID_44_);} .st71{opacity:0.56;fill:url(#SVGID_45_);} .st72{opacity:0.56;fill:url(#SVGID_46_);} .st73{opacity:0.56;fill:url(#SVGID_47_);} .st74{opacity:0.56;fill:url(#SVGID_48_);} .st75{opacity:0.56;fill:url(#SVGID_49_);} .st76{opacity:0.56;fill:url(#SVGID_50_);} .st77{opacity:0.56;fill:url(#SVGID_51_);} .st78{opacity:0.56;fill:url(#SVGID_52_);} .st79{opacity:0.56;fill:url(#SVGID_53_);} .st80{opacity:0.56;fill:url(#SVGID_54_);} .st81{opacity:0.56;fill:url(#SVGID_55_);} .st82{opacity:0.56;fill:url(#SVGID_56_);} .st83{opacity:0.56;fill:url(#SVGID_57_);} .st84{opacity:0.56;fill:url(#SVGID_58_);} .st85{opacity:0.56;fill:url(#SVGID_59_);} .st86{opacity:0.56;fill:url(#SVGID_60_);} .st87{opacity:0.56;fill:url(#SVGID_61_);} .st88{opacity:0.56;fill:url(#SVGID_62_);} .st89{opacity:0.56;fill:url(#SVGID_63_);} .st90{opacity:0.56;fill:url(#SVGID_64_);} .st91{opacity:0.56;fill:url(#SVGID_65_);} .st92{opacity:0.56;fill:url(#SVGID_66_);} .st93{fill:none;stroke:#898989;stroke-miterlimit:10;} .st94{fill:#898989;} .st95{fill:none;stroke:#666666;stroke-miterlimit:10;} .st96{fill:none;stroke:#EF524F;stroke-miterlimit:10;} .st97{fill:none;stroke:#EF524F;stroke-miterlimit:10;stroke-dasharray:12.0065,12.0065;} .st98{fill:#B2B2B2;} .st99{fill:#5A5C5E;} .st100{fill:#DBDBDB;} .st101{fill:#6A6B6B;} .st102{fill:none;stroke:#EF524F;stroke-miterlimit:10;stroke-dasharray:11.6391,11.6391;} .st103{fill:none;stroke:#EF524F;stroke-miterlimit:10;stroke-dasharray:12.7731,12.7731;} .st104{fill:none;stroke:#EF524F;stroke-miterlimit:10;stroke-dasharray:11.9372,11.9372;} .st105{opacity:0.56;fill:url(#SVGID_67_);} .st106{opacity:0.56;fill:url(#SVGID_68_);} .st107{opacity:0.56;fill:url(#SVGID_69_);} .st108{opacity:0.56;fill:url(#SVGID_70_);} .st109{opacity:0.56;fill:url(#SVGID_71_);} .st110{opacity:0.56;fill:url(#SVGID_72_);} .st111{opacity:0.56;fill:url(#SVGID_73_);} .st112{opacity:0.56;fill:url(#SVGID_74_);} .st113{opacity:0.56;fill:url(#SVGID_75_);} .st114{opacity:0.56;fill:url(#SVGID_76_);} .st115{opacity:0.56;fill:url(#SVGID_77_);} .st116{opacity:0.56;fill:url(#SVGID_78_);} .st117{opacity:0.56;fill:url(#SVGID_79_);} .st118{opacity:0.56;fill:url(#SVGID_80_);} .st119{opacity:0.56;fill:url(#SVGID_81_);} .st120{opacity:0.56;fill:url(#SVGID_82_);} .st121{opacity:0.56;fill:url(#SVGID_83_);} .st122{opacity:0.56;fill:url(#SVGID_84_);} .st123{opacity:0.56;fill:url(#SVGID_85_);} .st124{opacity:0.56;fill:url(#SVGID_86_);} .st125{opacity:0.56;fill:url(#SVGID_87_);} .st126{opacity:0.56;fill:url(#SVGID_88_);} .st127{opacity:0.56;fill:url(#SVGID_89_);} .st128{opacity:0.56;fill:url(#SVGID_90_);} .st129{opacity:0.56;fill:url(#SVGID_91_);} .st130{opacity:0.56;fill:url(#SVGID_92_);} .st131{opacity:0.56;fill:url(#SVGID_93_);} .st132{opacity:0.56;fill:url(#SVGID_94_);} .st133{opacity:0.56;fill:url(#SVGID_95_);} .st134{opacity:0.56;fill:url(#SVGID_96_);} .st135{opacity:0.56;fill:url(#SVGID_97_);} .st136{opacity:0.56;fill:url(#SVGID_98_);} .st137{opacity:0.56;fill:url(#SVGID_99_);} .st138{fill:none;stroke:#CCCCCC;stroke-width:1.778;stroke-miterlimit:10;} .st139{fill:none;stroke:#EF524F;stroke-width:1.778;stroke-miterlimit:10;stroke-dasharray:10.6678,10.6678;} .st140{fill:#E5E5E5;} .st141{fill:none;stroke:#666666;stroke-width:1.778;stroke-miterlimit:10;} .st142{fill:#F47B67;} .st143{fill:none;stroke:#EAEAEA;stroke-width:0.8726;stroke-miterlimit:10;} .st144{fill:#727272;} .st145{fill:none;stroke:#EAEAEA;stroke-width:0.75;stroke-miterlimit:10;} .st146{fill:#FFFFFF;stroke:#9B9B9B;stroke-miterlimit:10;} .st147{fill:none;stroke:#9B9B9B;stroke-miterlimit:10;} .st148{fill:#9B9B9B;} .st149{opacity:0.56;fill:url(#SVGID_100_);} .st150{opacity:0.56;fill:url(#SVGID_101_);} .st151{opacity:0.56;fill:url(#SVGID_102_);} .st152{opacity:0.56;fill:url(#SVGID_103_);} .st153{opacity:0.56;fill:url(#SVGID_104_);} .st154{opacity:0.56;fill:url(#SVGID_105_);} .st155{opacity:0.56;fill:url(#SVGID_106_);} .st156{opacity:0.56;fill:url(#SVGID_107_);} .st157{opacity:0.56;fill:url(#SVGID_108_);} .st158{opacity:0.56;fill:url(#SVGID_109_);} .st159{opacity:0.56;fill:url(#SVGID_110_);} .st160{opacity:0.56;fill:url(#SVGID_111_);} .st161{opacity:0.56;fill:url(#SVGID_112_);} .st162{opacity:0.56;fill:url(#SVGID_113_);} .st163{opacity:0.56;fill:url(#SVGID_114_);} .st164{opacity:0.56;fill:url(#SVGID_115_);} .st165{opacity:0.56;fill:url(#SVGID_116_);} .st166{opacity:0.56;fill:url(#SVGID_117_);} .st167{opacity:0.56;fill:url(#SVGID_118_);} .st168{opacity:0.56;fill:url(#SVGID_119_);} .st169{opacity:0.56;fill:url(#SVGID_120_);} .st170{opacity:0.56;fill:url(#SVGID_121_);} .st171{opacity:0.56;fill:url(#SVGID_122_);} .st172{opacity:0.56;fill:url(#SVGID_123_);} .st173{opacity:0.56;fill:url(#SVGID_124_);} .st174{opacity:0.56;fill:url(#SVGID_125_);} .st175{opacity:0.56;fill:url(#SVGID_126_);} .st176{opacity:0.56;fill:url(#SVGID_127_);} .st177{opacity:0.56;fill:url(#SVGID_128_);} .st178{opacity:0.56;fill:url(#SVGID_129_);} .st179{opacity:0.56;fill:url(#SVGID_130_);} .st180{opacity:0.56;fill:url(#SVGID_131_);} .st181{opacity:0.56;fill:url(#SVGID_132_);} .st182{fill:#E8E8E8;stroke:#C6C6C6;stroke-width:1.0826;stroke-miterlimit:10;} .st183{fill:#F15A24;} .st184{fill:#FFFFFF;stroke:#C6C6C6;stroke-width:1.0826;stroke-miterlimit:10;} .st185{fill:#636363;} .st186{fill:none;stroke:#636363;stroke-miterlimit:10;} .st187{fill:none;stroke:#EF524F;stroke-miterlimit:10;stroke-dasharray:12,12;} .st188{fill:none;stroke:#636363;stroke-width:0.6802;stroke-miterlimit:10;} .st189{fill:#FFFFFF;stroke:#636363;stroke-width:0.6802;stroke-miterlimit:10;} .st190{fill:none;stroke:#EF524F;stroke-miterlimit:10;stroke-dasharray:11.4666,11.4666;} .st191{fill:#E8E8E8;stroke:#898989;stroke-width:0.5488;stroke-miterlimit:10;} .st192{fill:#FFFFFF;stroke:#898989;stroke-width:0.5488;stroke-miterlimit:10;} .st193{fill:#22B573;} .st194{fill:#E8E8E8;} .st195{fill:#A8A8A8;} .st196{fill:#777777;} .st197{fill:#4C4C4C;} .st198{fill:none;stroke:#3F3F3F;stroke-miterlimit:10;} .st199{fill:#3F3F3F;} .st200{fill:none;stroke:#5B5B5B;stroke-miterlimit:10;} .st201{fill:#5B5B5B;} .st202{fill:none;stroke:#F47B67;stroke-miterlimit:10;} .st203{fill:#E8E8E8;stroke:#C6C6C6;stroke-miterlimit:10;} .st204{fill:#FFFFFF;stroke:#C6C6C6;stroke-miterlimit:10;} .st205{fill:#BFBFBF;} .st206{fill:none;stroke:#929292;stroke-width:1.0006;stroke-miterlimit:10;} .st207{fill:none;stroke:#939393;stroke-width:2;stroke-miterlimit:10;} .st208{fill:#E8E8E8;stroke:#C6C6C6;stroke-width:1.0171;stroke-miterlimit:10;} .st209{fill:#FFFFFF;stroke:#C6C6C6;stroke-width:1.0171;stroke-miterlimit:10;} .st210{fill:none;stroke:#C6C6C6;stroke-width:1.0171;stroke-miterlimit:10;} .st211{fill:none;stroke:#929292;stroke-width:0.9465;stroke-miterlimit:10;} .st212{fill:#FFFFFF;stroke:#C6C6C6;stroke-width:0.9459;stroke-miterlimit:10;} .st213{fill:none;stroke:#939393;stroke-width:1.8919;stroke-miterlimit:10;} .st214{fill:none;stroke:#EAEAEA;stroke-width:0.6078;stroke-miterlimit:10;} .st215{fill:none;stroke:#CCCCCC;stroke-width:1.5;stroke-miterlimit:10;} .st216{fill:#B3B3B3;} .st217{fill:#FFFFFF;stroke:#000000;stroke-width:0.25;stroke-miterlimit:10;} .st218{clip-path:url(#SVGID_134_);} .st219{clip-path:url(#SVGID_136_);} .st220{clip-path:url(#SVGID_138_);} .st221{fill:#F5F5F5;} .st222{fill:none;stroke:#CECECE;stroke-width:0.413;stroke-miterlimit:10;} .st223{fill:none;stroke:#CCCCCC;stroke-width:0.8606;stroke-miterlimit:10;} .st224{fill:none;stroke:#000000;stroke-width:0.5553;stroke-miterlimit:10;} .st225{fill:none;stroke:#3F3F3F;stroke-width:0.5553;stroke-miterlimit:10;} .st226{fill:none;stroke:#5B5B5B;stroke-width:0.5553;stroke-miterlimit:10;} .st227{fill:none;stroke:#F47B67;stroke-width:0.5553;stroke-miterlimit:10;} .st228{fill:#E8E8E8;stroke:#C6C6C6;stroke-width:0.5553;stroke-miterlimit:10;} .st229{fill:#FFFFFF;stroke:#C6C6C6;stroke-width:0.5499;stroke-miterlimit:10;} .st230{fill:none;stroke:#929292;stroke-width:0.5557;stroke-miterlimit:10;} .st231{fill:#FFFFFF;stroke:#C6C6C6;stroke-width:0.5553;stroke-miterlimit:10;} .st232{fill:none;stroke:#939393;stroke-width:1.1106;stroke-miterlimit:10;} .st233{fill:none;stroke:#3F3F3F;stroke-width:0.5501;stroke-miterlimit:10;} .st234{font-family:&apos;Lato-Light&apos;;} .st235{font-size:13.2025px;} .st236{font-size:8.8026px;} .st237{fill:#E8E8E8;stroke:#C6C6C6;stroke-width:0.5595;stroke-miterlimit:10;} .st238{fill:none;stroke:#C6C6C6;stroke-width:0.5595;stroke-miterlimit:10;} .st239{font-size:7.7073px;} .st240{fill:none;stroke:#929292;stroke-width:0.5207;stroke-miterlimit:10;} .st241{fill:#FFFFFF;stroke:#C6C6C6;stroke-width:0.5204;stroke-miterlimit:10;} .st242{fill:none;stroke:#939393;stroke-width:1.0407;stroke-miterlimit:10;} .st243{fill:none;stroke:#F47B67;stroke-width:0.5501;stroke-miterlimit:10;} .st244{fill:none;stroke:#CECECE;stroke-width:0.3562;stroke-miterlimit:10;} .st245{fill:#FFFFFF;stroke:#9B9B9B;stroke-width:0.474;stroke-miterlimit:10;} .st246{fill:#FFFFFF;stroke:#9B9B9B;stroke-width:0.4641;stroke-miterlimit:10;} .st247{fill:#FFFFFF;stroke:#9B9B9B;stroke-width:0.4611;stroke-miterlimit:10;} .st248{fill:#FFFFFF;stroke:#9B9B9B;stroke-width:0.4612;stroke-miterlimit:10;} .st249{fill:#FFFFFF;stroke:#9B9B9B;stroke-width:0.4783;stroke-miterlimit:10;} .st250{fill:#FFFFFF;stroke:#9B9B9B;stroke-width:0.4741;stroke-miterlimit:10;} .st251{fill:#FFFFFF;stroke:#9B9B9B;stroke-width:0.4764;stroke-miterlimit:10;} .st252{fill:#FFFFFF;stroke:#9B9B9B;stroke-width:0.4785;stroke-miterlimit:10;} .st253{fill:#FFFFFF;stroke:#9B9B9B;stroke-width:0.4207;stroke-miterlimit:10;} .st254{fill:#FFFFFF;stroke:#9B9B9B;stroke-width:0.4243;stroke-miterlimit:10;} .st255{fill:#FFFFFF;stroke:#9B9B9B;stroke-width:0.4302;stroke-miterlimit:10;} .st256{fill:#FFFFFF;stroke:#9B9B9B;stroke-width:0.4799;stroke-miterlimit:10;} .st257{fill:#FFFFFF;stroke:#9B9B9B;stroke-width:0.479;stroke-miterlimit:10;} .st258{fill:none;stroke:#9B9B9B;stroke-width:0.474;stroke-miterlimit:10;}</style><path d="M630.6 184H422.3c-3 0-5.4-2.4-5.4-5.4v-29.1c0-3 2.4-5.4 5.4-5.4h209.3c2.9 0 5.3 2.4 5.3 5.3v28.5c0 3.3-2.8 6.1-6.3 6.1z" class="st42"/><path d="M416.9 153h220v7h-220z" class="st194"/><path d="M471.2 177h-45.5c-1.5 0-2.7-1.2-2.7-2.7v-7.5c0-1.5 1.2-2.7 2.7-2.7h45.6c1.5 0 2.7 1.2 2.7 2.7v7.6c-.1 1.4-1.3 2.6-2.8 2.6z" class="st195"/><path d="M468.5 175h-3.1c-1.9 0-3.4-1.5-3.4-3.4v-3.1c0-1.9 1.5-3.4 3.4-3.4h3.1c1.9 0 3.4 1.5 3.4 3.4v3.1c0 1.9-1.5 3.4-3.4 3.4zm-13 0h-3.1c-1.9 0-3.4-1.5-3.4-3.4v-3.1c0-1.9 1.5-3.4 3.4-3.4h3.1c1.9 0 3.4 1.5 3.4 3.4v3.1c0 1.9-1.5 3.4-3.4 3.4zm-12 0h-3.1c-1.9 0-3.4-1.5-3.4-3.4v-3.1c0-1.9 1.5-3.4 3.4-3.4h3.1c1.9 0 3.4 1.5 3.4 3.4v3.1c0 1.9-1.5 3.4-3.4 3.4zm-13 0h-3.1c-1.9 0-3.4-1.5-3.4-3.4v-3.1c0-1.9 1.5-3.4 3.4-3.4h3.1c1.9 0 3.4 1.5 3.4 3.4v3.1c0 1.9-1.5 3.4-3.4 3.4z" class="st196"/><path d="M428.9 161.6l-.2.1-.1-.4.7-.3h.6v2h-1v-1.4zm12 1.5l.7-.6.2-.2c.1 0 .1-.1.1-.1l.1-.1v-.1c0-.1 0-.2-.1-.2s-.1-.1-.2-.1-.2 0-.2.1l-.2.2-.4-.3.2-.2.2-.2c.1 0 .2-.1.2-.1h.3c.1 0 .2 0 .3.1.1 0 .2.1.3.2l.2.2c0 .1-.6.3-.6.3s.7.2.7.3c0 .1-.1.2-.1.2 0 .1-.1.1-.2.2s-.2.2-.3.2l-.4.3h1.3v1h-2v-1.1zm13.4.4c-.2 0-.4 0-.5-.1-.1-.1-.3-.2-.4-.3l.4-.3c.1.1.2.2.3.2.1.1.2.1.3.1.1 0 .2 0 .2-.1.1 0 .1-.1.3-.2-.2-.1-.3-.2-.3-.2-.1 0-.2-.1-.3-.5h-.3l-.1.1.6-1.1h-.6 1v.5l-.3.6c.1 0 .2 0 .2.1.1 0 .2.1.2.1l.2.2c0 .1.8.3.8.3s-.7.2-.8.3c0 .1-.1.2-.2.3-.1.1-.2.1-.3.2-.1-.2-.2-.2-.4-.2zm12.6-.5h-1.8l-.1-.4 1.4-1.6h.5v1h1v2h-1v-1zm0 0v-.7l-.6.7h.6z" class="st197"/><circle cx="425.4" cy="166.5" r=".5" class="st193"/><circle cx="432.4" cy="166.5" r=".5" class="st193"/><circle cx="438.4" cy="166.5" r=".5" class="st193"/><circle cx="445.4" cy="166.5" r=".5" class="st193"/><circle cx="451.4" cy="166.5" r=".5" class="st193"/><circle cx="457.4" cy="166.5" r=".5" class="st193"/><circle cx="463.4" cy="166.5" r=".5" class="st193"/><circle cx="470.4" cy="166.5" r=".5" class="st193"/><path d="M523.2 177h-45.5c-1.5 0-2.7-1.2-2.7-2.7v-7.5c0-1.5 1.2-2.7 2.7-2.7h45.6c1.5 0 2.7 1.2 2.7 2.7v7.6c-.1 1.4-1.3 2.6-2.8 2.6z" class="st195"/><path d="M521.5 175h-3.1c-1.9 0-3.4-1.5-3.4-3.4v-3.1c0-1.9 1.5-3.4 3.4-3.4h3.1c1.9 0 3.4 1.5 3.4 3.4v3.1c0 1.9-1.5 3.4-3.4 3.4zm-13 0h-3.1c-1.9 0-3.4-1.5-3.4-3.4v-3.1c0-1.9 1.5-3.4 3.4-3.4h3.1c1.9 0 3.4 1.5 3.4 3.4v3.1c0 1.9-1.5 3.4-3.4 3.4zm-12 0h-3.1c-1.9 0-3.4-1.5-3.4-3.4v-3.1c0-1.9 1.5-3.4 3.4-3.4h3.1c1.9 0 3.4 1.5 3.4 3.4v3.1c0 1.9-1.5 3.4-3.4 3.4zm-13 0h-3.1c-1.9 0-3.4-1.5-3.4-3.4v-3.1c0-1.9 1.5-3.4 3.4-3.4h3.1c1.9 0 3.4 1.5 3.4 3.4v3.1c0 1.9-1.5 3.4-3.4 3.4z" class="st196"/><path d="M481.9 163.6c-.2 0-.4 0-.5-.1-.1-.1-.3-.1-.4-.3l.3-.4c.1.1.2.2.3.2.1.1.2.1.3.1.1 0 .2 0 .3-.1.1-.1.7-.2.7-.2s-.6-.2-.7-.2c-.1-.1-.2-.1-.3-.1h-.2c-.1 0-.1 0-.2.1l-.3-.2.1-1.3h1.6-1.2v1h.6c.1 0 .2.1.3.1l.2.2c0 .1.1.2.1.4-.1.1-.1.2-.1.3 0 .1-.1.2-.2.3-.1.1-.2.1-.3.2-.1-.1-.2 0-.4 0zm13 0c-.2 0-.3 0-.4-.1-.1 0-.2-.1-.3-.2-.1-.1-.2-.2-.2-.4 0-.1-.1-.3-.1-.6 0-.2 0-.4.1-.5 0-.2.1-.3.2-.4.1-.1.2-.2.4-.3.1-.1.3-.1.5-.1h.2c.1 0 .1 0 .2.1.1 0 .1.1.2.1s.1.1.2.1l-.3.4-.1-.1s-.1 0-.1-.1h-.2c-.1 0-.1 0-.2.1-.1 0-.1.1-.1.1 0 .1-.1.1-.1.2v.2c.1 0 .1-.1.2-.1h.3s.2 0 .4.1c.1 0 .2.1.3.2.1.1.1.2.2.3.1.1.1.2.1.4 0 .1 0 .3-.1.4 0 .1-.1.2-.2.3-.1.1-.2.1-.3.2-.5-.3-.6-.3-.8-.3zm-.4-.5c.1 0 .2 0 .3-.1.1-.1.1-.1.1-.2s0-.2-.1-.2c-.1-.1-.2-.1-.3-.1-.1 0-.2 0-.3.1-.1.1-.1.2-.3.3.2.1.2.2.3.3.1-.1.2-.1.3-.1zm12.8-2.1h-1.4 2v-.1l-1.1 2.1h-.6l1.1-2zm12.4 2.6h-.4c-.1 0-.2-.1-.3-.1l-.2-.2c0-.1-.9-.3-.9-.3s.9-.3 1-.3c.1-.1.2-.2.3-.2-.1-.1-.2-.1-.2-.2v-.6c0-.1.1-.1.2-.2s.2-.1.3-.1h.3c.1 0 .2 0 .3.1.1 0 .2.1.3.1l.2.2c0 .1-.6.3-.6.3s.6.2.5.3c0 .1-.1.2-.2.2.1.1.2.1.3.2.1.1.4.3.4.3s-.3.2-.4.3c0 .1-.1.2-.2.2-.1.1-.2.1-.3.1-.2-.2-.3-.1-.4-.1zm0-.5c.1 0 .2 0 .3-.1.1-.1.1-.1-.1-.2.2-.1.2-.2.1-.2s-.2-.1-.3-.1c-.1 0-.2 0-.3.1-.1.1-.1.1-.5.2.4.1.4.2.5.2 0 .1.1.1.3.1zm0-1c.1 0 .2 0 .3-.1.1 0 .1-.1 0-.2.1-.1.1-.1 0-.2s-.1-.1-.2-.1-.2 0-.2.1c-.1.1-.1.1-.5.2.4.1.5.2.5.2-.1.1 0 .1.1.1z" class="st197"/><circle cx="478.4" cy="166.5" r=".5" class="st193"/><circle cx="485.4" cy="166.5" r=".5" class="st193"/><circle cx="491.4" cy="166.5" r=".5" class="st193"/><circle cx="498.4" cy="166.5" r=".5" class="st193"/><circle cx="503.4" cy="166.5" r=".5" class="st193"/><circle cx="510.4" cy="166.5" r=".5" class="st193"/><circle cx="516.4" cy="166.5" r=".5" class="st193"/><circle cx="523.4" cy="166.5" r=".5" class="st193"/><circle cx="419.4" cy="170.5" r="1.5" class="st193"/><path d="M576.2 177h-45.5c-1.5 0-2.7-1.2-2.7-2.7v-7.5c0-1.5 1.2-2.7 2.7-2.7h45.6c1.5 0 2.7 1.2 2.7 2.7v7.6c-.1 1.4-1.3 2.6-2.8 2.6z" class="st195"/><path d="M574.5 175h-3.1c-1.9 0-3.4-1.5-3.4-3.4v-3.1c0-1.9 1.5-3.4 3.4-3.4h3.1c1.9 0 3.4 1.5 3.4 3.4v3.1c0 1.9-1.5 3.4-3.4 3.4zm-13 0h-3.1c-1.9 0-3.4-1.5-3.4-3.4v-3.1c0-1.9 1.5-3.4 3.4-3.4h3.1c1.9 0 3.4 1.5 3.4 3.4v3.1c0 1.9-1.5 3.4-3.4 3.4zm-13 0h-3.1c-1.9 0-3.4-1.5-3.4-3.4v-3.1c0-1.9 1.5-3.4 3.4-3.4h3.1c1.9 0 3.4 1.5 3.4 3.4v3.1c0 1.9-1.5 3.4-3.4 3.4zm-12 0h-3.1c-1.9 0-3.4-1.5-3.4-3.4v-3.1c0-1.9 1.5-3.4 3.4-3.4h3.1c1.9 0 3.4 1.5 3.4 3.4v3.1c0 1.9-1.5 3.4-3.4 3.4z" class="st196"/><path d="M534.8 163.5c-.2 0-.3 0-.5-.1-.1-.1-.2-.1-.4-.2l.3-.4c.1.1.2.1.3.2s.2.1.3.1c.2 0 .3 0 .4-.2.1-.1.1-.2.2-.4-.1.1-.1.1-.2.1s-.2.1-.3.1c-.1 0-.3 0-.4-.1-.1 0-.2-.1-.3-.2-.1-.1-.1-.2-.2-.3 0-.1-.1-.2-.1-.3 0-.1 0-.2.1-.4s.1-.2.2-.3c.1-.1.2-.1.3-.2.1 0 .3-.1.4-.1h.2c.1 0 .1 0 .2.1.1 0 .1.1.2.1s.1.1.2.1c.1.1.1.1.1.2s.1.1.1.2.1.2.1.3v.3c0 .2 0 .4-.1.6 0 .2-.1.3-.2.4l-.3.3c-.3.1-.4.1-.6.1zm-.1-1.3c.1 0 .2 0 .3-.1.1-.1.1-.1-.1-.2.2-.1.2-.2.1-.3-.1-.1-.2-.1-.3-.1-.1 0-.2 0-.3.1-.1.1-.1.2-.5.3.4.1.5.2.5.3.1-.1.2 0 .3 0zm11.2-.7l-.3.1-.1-.4.7-.2h.7v2h-1v-1.5z" class="st197"/><path d="M547.9 163.4c-.1 0-.3 0-.4-.1-.1-.1-.2-.1-.3-.2-.1-.1-.1-.2-.2-.4 0-.1-.1-.3-.1-.5s0-.3.1-.5.1-.3.2-.4c.1-.1.2-.2.3-.2.1-.1.3-.1.4-.1.2 0 .3 0 .4.1.1.1.2.1.3.2.1.1.2.2.2.4.1.1.1.3.1.5s0 .3-.1.5c0 .1-.1.3-.2.4l-.3.3h-.4zm.5-.4h.2c.1 0 .1-.1.2-.1 0-.1.1-.1.1-.2v-.6c0-.1-.1-.2-.1-.2 0-.1-.1-.1-.2-.1s-.1-.1-.2-.1-.1 0-.2.1c-.1 0-.1.1-.2.2 0 .1-.1.1-.1.2v.6c0 .1.1.2.1.2 0 .1.1.1.2.2.1-.3.1-.2.2-.2zm10.5-1.4l-.1.1-.1-.4.7-.2h.6v2h-1v-1.5z" class="st197"/><path d="M560.9 161.6l-.7.1-.1-.4.7-.2h-.9v2h1v-1.5zm10 0v.1l-.1-.4.7-.2h.4v2h-1v-1.5zm1 1.4l1.3-.6.2-.2c.1 0 .1-.1.1-.1l.1-.1v-.1c0-.1 0-.2-.1-.2s-.1-.1-.2-.1-.2 0-.2.1l-.2.2-.4-.3.2-.2.2-.2c.1 0 .2-.1.2-.1h.3c.1 0 .2 0 .3.1.1 0 .2.1.3.2l.2.2c0 .1-.1.3-.1.3s.2.2.2.3c0 .1-.1.2-.1.2 0 .1-.1.1-.2.2s-.2.2-.3.2l-.4.4h1.8v1h-3V163z" class="st197"/><circle cx="531.4" cy="166.5" r=".5" class="st193"/><circle cx="538.4" cy="166.5" r=".5" class="st193"/><circle cx="544.4" cy="166.5" r=".5" class="st193"/><circle cx="550.4" cy="166.5" r=".5" class="st193"/><circle cx="556.4" cy="166.5" r=".5" class="st193"/><circle cx="563.4" cy="166.5" r=".5" class="st193"/><circle cx="569.4" cy="166.5" r=".5" class="st193"/><circle cx="575.4" cy="166.5" r=".5" class="st193"/><path d="M629.2 177h-45.5c-1.5 0-2.7-1.2-2.7-2.7v-7.5c0-1.5 1.2-2.7 2.7-2.7h45.6c1.5 0 2.7 1.2 2.7 2.7v7.6c-.1 1.4-1.3 2.6-2.8 2.6z" class="st195"/><path d="M626.5 175h-3.1c-1.9 0-3.4-1.5-3.4-3.4v-3.1c0-1.9 1.5-3.4 3.4-3.4h3.1c1.9 0 3.4 1.5 3.4 3.4v3.1c0 1.9-1.5 3.4-3.4 3.4zm-12 0h-3.1c-1.9 0-3.4-1.5-3.4-3.4v-3.1c0-1.9 1.5-3.4 3.4-3.4h3.1c1.9 0 3.4 1.5 3.4 3.4v3.1c0 1.9-1.5 3.4-3.4 3.4zm-13 0h-3.1c-1.9 0-3.4-1.5-3.4-3.4v-3.1c0-1.9 1.5-3.4 3.4-3.4h3.1c1.9 0 3.4 1.5 3.4 3.4v3.1c0 1.9-1.5 3.4-3.4 3.4zm-12 0h-3.1c-1.9 0-3.4-1.5-3.4-3.4v-3.1c0-1.9 1.5-3.4 3.4-3.4h3.1c1.9 0 3.4 1.5 3.4 3.4v3.1c0 1.9-1.5 3.4-3.4 3.4z" class="st196"/><path d="M586.9 161.8l-.8.1-.1-.4.7-.4h-.8v2h1v-1.3zm1.5 1.9c-.2 0-.4 0-.5-.1-.1-.1-.3-.2-.4-.3l.4-.3c.1.1.2.2.3.2.1.1.2.1.3.1.1 0 .2 0 .2-.1.1 0 .1-.1.3-.2-.2-.1-.2-.2-.3-.2-.1 0-.2-.1-.3.3h-.2l-.1-.7.6-1.2h-.6 1v.6l-.3.6c.1 0 .2 0 .2.1.1 0 .2.1.2.1l.2.2c0 .1.7.3.7.3s-.7.2-.7.3c0 .1-.1.2-.2.3-.1.1-.2.1-.3.2-.2-.2-.4-.2-.5-.2zm10.5-1.9l-.4.1-.1-.4.7-.4h.8v2h-1v-1.3z" class="st197"/><path d="M600.9 163h-1.8l-.1-.4 1.4-1.6h.5v1h1v2h-1v-1zm0 0v-.7l-.6.7h.6zm12-1.2l-1.7.1-.1-.4.7-.4h.1v2h1v-1.3z" class="st197"/><path d="M613.5 163.7c-.2 0-.4 0-.5-.1-.1-.1-.3-.1-.4-.3l.3-.4c.1.1.2.2.3.2.1.1.2.1.3.1.1 0 .2 0 .3-.1.1-.1.1-.2.1-.2s0-.2-.1-.2-.2-.1-.3-.1h-.2c-.1 0-.1 0-.2.1l-.3-.2.1-1.4h2-1.6v1.1h.6c.1 0 .2.1.3.1l.2.2c0 .1.1.2.5.4-.5.1-.5.2-.5.3 0 .1-.1.2-.2.3-.1.1-.2.1-.3.2s-.2 0-.4 0zm10.4-1.9l-.1.1-.1-.4.7-.4h.6v2h-1v-1.3z" class="st197"/><path d="M625.9 163.8c-.2 0-.3 0-.4-.1-.1 0-.2-.1-.3-.2-.1-.1-.2-.2-.2-.4 0-.1-.1-.3-.1-.6 0-.2 0-.4.1-.5 0-.2.1-.3.2-.4.1-.1.2-.2.4-.3.1-.1.3-.1.5-.1h.2s.1 0 .2.1c.1 0 .1.1.2.1s.1.1.2.1l-.3.4-.1-.1s-.1 0-.1-.1-.1 0-.1 0h-.1c-.1 0-.1 0-.2.1-.1 0-.1.1-.1.1 0 .1-.1.1-.1.2v.2c.1 0 .1-.1.2-.1h.3s.2 0 .4.1c.1 0 .2.1.3.2s.1.2.2.3c.1.1.1.2.1.4 0 .1 0 .3-.1.4 0 .1-.1.2-.2.3-.1.1-.2.1-.3.2-.5-.3-.6-.3-.8-.3zm.2-.5c.1 0 .2 0 .3-.1.1-.1.1-.1.5-.2-.3-.1-.4-.2-.4-.2s-.2-.1-.3-.1c-.1 0-.2 0-.3.1-.1.1-.1.2.1.3-.2.1-.1.2-.1.3 0-.2.1-.1.2-.1z" class="st197"/><circle cx="584.4" cy="166.5" r=".5" class="st193"/><circle cx="591.4" cy="166.5" r=".5" class="st193"/><circle cx="596.4" cy="166.5" r=".5" class="st193"/><circle cx="603.4" cy="166.5" r=".5" class="st193"/><circle cx="609.4" cy="166.5" r=".5" class="st193"/><circle cx="616.4" cy="166.5" r=".5" class="st193"/><circle cx="622.4" cy="166.5" r=".5" class="st193"/><circle cx="628.4" cy="166.5" r=".5" class="st193"/><path d="M161.4 366.7v-47.3" class="st233"/><path d="M159.9 365.1h2.9v2.9h-2.9zm0-47.1h2.9v2.9h-2.9z" class="st199"/><path d="M161.4 261.7v-42.3c0-5.4 4.4-9.8 9.8-9.8h249.4c5.4 0 9.7-4.4 9.7-9.8l-.4-30.3" class="st233"/><path d="M159.9 260.1h2.9v2.9h-2.9zm268.575-92.103l2.9-.035.034 2.9-2.9.034z" class="st199"/><path d="M400.4 260.7v-29.3c0-5.4 4.4-9.8 9.8-9.8h22.4c5.4 0 9.8-4.4 9.8-9.8v-43.3" class="st233"/><path d="M398.9 259.1h2.9v2.9h-2.9zm42-92.1h2.9v2.9h-2.9z" class="st199"/><path d="M640.4 260.7v-29.3c0-5.4-4.4-9.8-9.8-9.8H464.2c-5.4 0-9.8-4.4-9.8-9.8v-43.3" class="st233"/><path d="M638.9 259.1h2.9v2.9h-2.9zm-186-92.1h2.9v2.9h-2.9z" class="st199"/><path d="M880.4 261.7v-42.3c0-5.4-4.4-9.8-9.8-9.8H477.2c-5.4 0-9.8-4.4-9.8-9.8v-30.3" class="st233"/><path d="M878.9 260.1h2.9v2.9h-2.9zm-413-92.1h2.9v2.9h-2.9z" class="st199"/><path d="M400.4 366.7v-47.3" class="st233"/><path d="M398.9 365.1h2.9v2.9h-2.9zm0-47.1h2.9v2.9h-2.9z" class="st199"/><path d="M640.4 366.7v-47.3" class="st233"/><path d="M638.9 365.1h2.9v2.9h-2.9zm0-47.1h2.9v2.9h-2.9z" class="st199"/><path d="M880.4 366.7v-47.3" class="st233"/><path d="M878.9 365.1h2.9v2.9h-2.9zm0-47.1h2.9v2.9h-2.9z" class="st199"/><path d="M667.4 0v185.7c0 5.4-4.4 9.8-9.8 9.8h-22.4c-5.4 0-9.8-4.4-9.8-9.8v-17.3" class="st233"/><path d="M623.9 167h2.9v2.9h-2.9z" class="st199"/><text transform="translate(1058.183 71.658)" class="st234 st235">INTERNET</text><text transform="translate(1058.183 154.196)"><tspan class="st234 st235">16-PORT</tspan><tspan y="15.8" class="st234 st235"> 10 GIGABIT</tspan><tspan y="31.7" class="st234 st235"> ETHERNET</tspan><tspan y="47.5" class="st234 st235"> SWITCH</tspan></text><text transform="translate(1058.183 297.103)" class="st234 st235">4 SERVERS</text><text transform="translate(1058.183 486.734)"><tspan class="st234 st235">16 8TB</tspan><tspan y="15.8" class="st234 st235"> DRIVES</tspan></text><text transform="translate(115.324 257.1)" class="st234 st236">NODE 1</text><text transform="translate(355.767 257.1)" class="st234 st236">NODE 2</text><text transform="translate(596.208 257.1)" class="st234 st236">NODE 3</text><text transform="translate(836.65 257.1)" class="st234 st236">NODE 4</text><text transform="translate(174.13 257.1)" class="st234 st236">192.168.1.11:9000</text><text transform="translate(409.397 257.1)" class="st234 st236">192.168.1.12:9000</text><text transform="translate(650.165 257.1)" class="st234 st236">192.168.1.13:9000</text><text transform="translate(888.977 257.1)" class="st234 st236">192.168.1.14:9000</text><path d="M724.8 318.5H556c-2.5 0-4.6-2.1-4.6-4.6v-46.7c0-2.5 2.1-4.6 4.6-4.6h168.8c2.6 0 4.6 2.1 4.6 4.6V314c0 2.5-2.1 4.5-4.6 4.5z" class="st237"/><circle cx="651.9" cy="286" r="3" class="st59"/><circle cx="663.9" cy="286" r="3" class="st59"/><circle cx="674.9" cy="286" r="3" class="st59"/><circle cx="686.9" cy="286" r="3" class="st59"/><circle cx="697.9" cy="286" r="3" class="st59"/><circle cx="657.9" cy="294" r="3" class="st59"/><circle cx="669.9" cy="294" r="3" class="st59"/><circle cx="680.9" cy="294" r="3" class="st59"/><circle cx="692.9" cy="294" r="3" class="st59"/><circle cx="704.9" cy="294" r="3" class="st59"/><circle cx="584.9" cy="290" r="10.5" class="st229"/><path d="M484.8 318.5H316c-2.5 0-4.6-2.1-4.6-4.6v-46.7c0-2.5 2.1-4.6 4.6-4.6h168.8c2.6 0 4.6 2.1 4.6 4.6V314c0 2.5-2.1 4.5-4.6 4.5z" class="st237"/><circle cx="412.9" cy="286" r="3" class="st59"/><circle cx="423.9" cy="286" r="3" class="st59"/><circle cx="435.9" cy="286" r="3" class="st59"/><circle cx="446.9" cy="286" r="3" class="st59"/><circle cx="458.9" cy="286" r="3" class="st59"/><circle cx="418.9" cy="294" r="3" class="st59"/><circle cx="429.9" cy="294" r="3" class="st59"/><circle cx="441.9" cy="294" r="3" class="st59"/><circle cx="452.9" cy="294" r="3" class="st59"/><circle cx="464.9" cy="294" r="3" class="st59"/><circle cx="345.9" cy="290" r="10.5" class="st229"/><path d="M245.8 318.5H77c-2.5 0-4.6-2.1-4.6-4.6v-46.7c0-2.5 2.1-4.6 4.6-4.6h168.8c2.6 0 4.6 2.1 4.6 4.6V314c0 2.5-2.1 4.5-4.6 4.5z" class="st237"/><circle cx="172.9" cy="286" r="3" class="st59"/><circle cx="184.9" cy="286" r="3" class="st59"/><circle cx="195.9" cy="286" r="3" class="st59"/><circle cx="207.9" cy="286" r="3" class="st59"/><circle cx="218.9" cy="286" r="3" class="st59"/><circle cx="178.9" cy="294" r="3" class="st59"/><circle cx="190.9" cy="294" r="3" class="st59"/><circle cx="201.9" cy="294" r="3" class="st59"/><circle cx="213.9" cy="294" r="3" class="st59"/><circle cx="224.9" cy="294" r="3" class="st59"/><circle cx="105.9" cy="290" r="10.5" class="st229"/><path d="M964.8 318.5H796c-2.5 0-4.6-2.1-4.6-4.6v-46.7c0-2.5 2.1-4.6 4.6-4.6h168.8c2.6 0 4.6 2.1 4.6 4.6V314c0 2.5-2.1 4.5-4.6 4.5z" class="st237"/><circle cx="891.9" cy="286" r="3" class="st59"/><circle cx="902.9" cy="286" r="3" class="st59"/><circle cx="914.9" cy="286" r="3" class="st59"/><circle cx="926.9" cy="286" r="3" class="st59"/><circle cx="937.9" cy="286" r="3" class="st59"/><circle cx="897.9" cy="294" r="3" class="st59"/><circle cx="908.9" cy="294" r="3" class="st59"/><circle cx="920.9" cy="294" r="3" class="st59"/><circle cx="932.9" cy="294" r="3" class="st59"/><circle cx="943.9" cy="294" r="3" class="st59"/><circle cx="824.9" cy="290" r="10.5" class="st229"/><path d="M724 588.5H556.8c-3 0-5.4-2.4-5.4-5.4V373.9c0-3 2.4-5.4 5.4-5.4H724c3 0 5.4 2.4 5.4 5.4v209.2c0 3-2.4 5.4-5.4 5.4z" class="st194"/><path d="M724 588.5H556.8c-3 0-5.4-2.4-5.4-5.4V373.9c0-3 2.4-5.4 5.4-5.4H724c3 0 5.4 2.4 5.4 5.4v209.2c0 3-2.4 5.4-5.4 5.4z" class="st238"/><text transform="translate(664.354 578.975)" class="st234 st239">EXPORT 4</text><text transform="translate(580.308 578.975)" class="st234 st239">EXPORT 3</text><text transform="translate(581.355 475.356)" class="st234 st239">EXPORT 1</text><text transform="translate(664.354 474.927)" class="st234 st239">EXPORT 2</text><path d="M628.9 388.3c0-1.2-1-2.2-2.2-2.2h-56.5c-1.2 0-2.2 1-2.2 2.3v75.5c0 1.2 1 2.3 2.3 2.3h56.6c1.2 0 2.3-1 2.3-2.2v-75.7z" class="st205"/><path d="M598.4 466v-11.9c2.6-.1 5.2-.5 7.6-1.2l6.1 4.5c.1.1.3.2.4.3 1.7 1.1 3.8 1.7 6.1 1.4 3.7-.5 6.8-3.4 7.5-7.2.7-3.9-1.2-7.4-4.2-9.1.2-.2 3.8-5.1 4.1-6.2h2.9" class="st240"/><circle cx="598.9" cy="423.6" r="27.7" class="st241"/><circle cx="572.9" cy="390" r="2" class="st59"/><circle cx="624.9" cy="390" r="2" class="st59"/><circle cx="572.9" cy="462" r="2" class="st59"/><circle cx="624.9" cy="462" r="2" class="st59"/><circle cx="598.8" cy="423.6" r="2.2" class="st59"/><circle cx="598.8" cy="423.6" r="2.2" class="st59"/><circle cx="598.8" cy="423.6" r="5.2" class="st242"/><path d="M620.2 444.3l-29.3-9h-.3c-.7 0-1.3.6-1.3 1.4 0 .4.2.8.5 1.1l24.5 17.8c1 .7 2.2 1 3.5 1 3.5 0 6.4-2.8 6.4-6.4-.1-2.7-1.7-4.9-4-5.9z" class="st183"/><circle cx="617.9" cy="450" r="4" class="st0"/><path d="M712.9 388.3c0-1.2-1-2.2-2.2-2.2h-56.5c-1.2 0-2.2 1-2.2 2.3v75.5c0 1.2 1 2.3 2.3 2.3h56.6c1.2 0 2.3-1 2.3-2.2v-75.7z" class="st205"/><path d="M682.4 466v-11.9c2.6-.1 5.2-.5 7.6-1.2l6.1 4.5c.1.1.3.2.4.3 1.7 1.1 3.8 1.7 6.1 1.4 3.7-.5 6.8-3.4 7.5-7.2.7-3.9-1.2-7.4-4.2-9.1.2-.2 3.8-5.1 4.1-6.2h2.9" class="st240"/><circle cx="681.9" cy="423.6" r="27.7" class="st241"/><circle cx="655.9" cy="390" r="2" class="st59"/><circle cx="707.9" cy="390" r="2" class="st59"/><circle cx="655.9" cy="462" r="2" class="st59"/><circle cx="707.9" cy="462" r="2" class="st59"/><circle cx="681.8" cy="423.6" r="2.2" class="st59"/><circle cx="681.8" cy="423.6" r="2.2" class="st59"/><circle cx="681.8" cy="423.6" r="5.2" class="st242"/><path d="M703.3 444.3l-29.3-9h-.3c-.7 0-1.3.6-1.3 1.4 0 .4.2.8.5 1.1l24.5 17.8c1 .7 2.2 1 3.5 1 3.5 0 6.4-2.8 6.4-6.4-.1-2.7-1.8-4.9-4-5.9z" class="st183"/><circle cx="700.9" cy="450" r="4" class="st0"/><path d="M628.9 492.3c0-1.2-1-2.2-2.2-2.2h-56.5c-1.2 0-2.2 1-2.2 2.3v75.5c0 1.2 1 2.3 2.3 2.3h56.6c1.2 0 2.3-1 2.3-2.2v-75.7z" class="st205"/><path d="M598.4 570v-11.9c2.6-.1 5.2-.5 7.6-1.2l6.1 4.5c.1.1.3.2.4.3 1.7 1.1 3.8 1.7 6.1 1.4 3.7-.5 6.8-3.4 7.5-7.2.7-3.9-1.2-7.4-4.2-9.1.2-.2 3.8-5.1 4.1-6.2h2.9" class="st240"/><circle cx="598.9" cy="527.8" r="27.7" class="st241"/><circle cx="572.9" cy="494" r="2" class="st59"/><circle cx="624.9" cy="494" r="2" class="st59"/><circle cx="572.9" cy="566" r="2" class="st59"/><circle cx="624.9" cy="566" r="2" class="st59"/><circle cx="598.8" cy="527.8" r="2.2" class="st59"/><circle cx="598.8" cy="527.8" r="2.2" class="st59"/><circle cx="598.8" cy="527.8" r="5.2" class="st242"/><path d="M620.2 548.4l-29.3-9h-.3c-.7 0-1.3.6-1.3 1.4 0 .4.2.8.5 1.1l24.5 17.8c1 .7 2.2 1 3.5 1 3.5 0 6.4-2.8 6.4-6.4-.1-2.6-1.7-4.9-4-5.9z" class="st183"/><circle cx="617.9" cy="554" r="4" class="st0"/><path d="M712.9 492.3c0-1.2-1-2.2-2.2-2.2h-56.5c-1.2 0-2.2 1-2.2 2.3v75.5c0 1.2 1 2.3 2.3 2.3h56.6c1.2 0 2.3-1 2.3-2.2v-75.7z" class="st205"/><path d="M682.4 570v-11.9c2.6-.1 5.2-.5 7.6-1.2l6.1 4.5c.1.1.3.2.4.3 1.7 1.1 3.8 1.7 6.1 1.4 3.7-.5 6.8-3.4 7.5-7.2.7-3.9-1.2-7.4-4.2-9.1.2-.2 3.8-5.1 4.1-6.2h2.9" class="st240"/><circle cx="681.9" cy="527.8" r="27.7" class="st241"/><circle cx="655.9" cy="494" r="2" class="st59"/><circle cx="707.9" cy="494" r="2" class="st59"/><circle cx="655.9" cy="566" r="2" class="st59"/><circle cx="707.9" cy="566" r="2" class="st59"/><circle cx="681.8" cy="527.8" r="2.2" class="st59"/><circle cx="681.8" cy="527.8" r="2.2" class="st59"/><circle cx="681.8" cy="527.8" r="5.2" class="st242"/><path d="M703.3 548.4l-29.3-9h-.3c-.7 0-1.3.6-1.3 1.4 0 .4.2.8.5 1.1l24.5 17.8c1 .7 2.2 1 3.5 1 3.5 0 6.4-2.8 6.4-6.4-.1-2.6-1.8-4.9-4-5.9z" class="st183"/><circle cx="700.9" cy="554" r="4" class="st0"/><path d="M484 588.5H316.8c-3 0-5.4-2.4-5.4-5.4V373.9c0-3 2.4-5.4 5.4-5.4H484c3 0 5.4 2.4 5.4 5.4v209.2c0 3-2.4 5.4-5.4 5.4z" class="st194"/><path d="M484 588.5H316.8c-3 0-5.4-2.4-5.4-5.4V373.9c0-3 2.4-5.4 5.4-5.4H484c3 0 5.4 2.4 5.4 5.4v209.2c0 3-2.4 5.4-5.4 5.4z" class="st238"/><text transform="translate(424.78 578.975)" class="st234 st239">EXPORT 4</text><text transform="translate(340.736 578.975)" class="st234 st239">EXPORT 3</text><text transform="translate(341.782 475.356)" class="st234 st239">EXPORT 1</text><text transform="translate(424.78 474.927)" class="st234 st239">EXPORT 2</text><path d="M389.9 388.3c0-1.2-1-2.2-2.2-2.2h-56.5c-1.2 0-2.2 1-2.2 2.3v75.5c0 1.2 1 2.3 2.3 2.3h56.6c1.2 0 2.3-1 2.3-2.2v-75.7z" class="st205"/><path d="M359.4 466v-11.9c2.6-.1 5.2-.5 7.6-1.2l6.1 4.5c.1.1.3.2.4.3 1.7 1.1 3.8 1.7 6.1 1.4 3.7-.5 6.8-3.4 7.5-7.2.7-3.9-1.2-7.4-4.2-9.1.2-.2 3.8-5.1 4.1-6.2h2.9" class="st240"/><circle cx="359.3" cy="423.6" r="27.7" class="st241"/><circle cx="332.9" cy="390" r="2" class="st59"/><circle cx="385.9" cy="390" r="2" class="st59"/><circle cx="332.9" cy="462" r="2" class="st59"/><circle cx="385.9" cy="462" r="2" class="st59"/><circle cx="359.2" cy="423.6" r="2.2" class="st59"/><circle cx="359.2" cy="423.6" r="2.2" class="st59"/><circle cx="359.2" cy="423.6" r="5.2" class="st242"/><path d="M380.6 444.3l-29.3-9h-.3c-.7 0-1.3.6-1.3 1.4 0 .4.2.8.5 1.1l24.5 17.8c1 .7 2.2 1 3.5 1 3.5 0 6.4-2.8 6.4-6.4 0-2.7-1.7-4.9-4-5.9z" class="st183"/><circle cx="377.9" cy="450" r="4" class="st0"/><path d="M472.9 388.3c0-1.2-1-2.2-2.2-2.2h-56.5c-1.2 0-2.2 1-2.2 2.3v75.5c0 1.2 1 2.3 2.3 2.3h56.6c1.2 0 2.3-1 2.3-2.2v-75.7z" class="st205"/><path d="M442.4 466v-11.9c2.6-.1 5.2-.5 7.6-1.2l6.1 4.5c.1.1.3.2.4.3 1.7 1.1 3.8 1.7 6.1 1.4 3.7-.5 6.8-3.4 7.5-7.2.7-3.9-1.2-7.4-4.2-9.1.2-.2 3.8-5.1 4.1-6.2h2.9" class="st240"/><circle cx="442.3" cy="423.6" r="27.7" class="st241"/><circle cx="415.9" cy="390" r="2" class="st59"/><circle cx="468.9" cy="390" r="2" class="st59"/><circle cx="415.9" cy="462" r="2" class="st59"/><circle cx="468.9" cy="462" r="2" class="st59"/><circle cx="442.2" cy="423.6" r="2.2" class="st59"/><circle cx="442.2" cy="423.6" r="2.2" class="st59"/><circle cx="442.2" cy="423.6" r="5.2" class="st242"/><path d="M463.7 444.3l-29.3-9h-.3c-.7 0-1.3.6-1.3 1.4 0 .4.2.8.5 1.1l24.5 17.8c1 .7 2.2 1 3.5 1 3.5 0 6.4-2.8 6.4-6.4-.1-2.7-1.7-4.9-4-5.9z" class="st183"/><circle cx="460.9" cy="450" r="4" class="st0"/><path d="M389.9 492.3c0-1.2-1-2.2-2.2-2.2h-56.5c-1.2 0-2.2 1-2.2 2.3v75.5c0 1.2 1 2.3 2.3 2.3h56.6c1.2 0 2.3-1 2.3-2.2v-75.7z" class="st205"/><path d="M359.4 570v-11.9c2.6-.1 5.2-.5 7.6-1.2l6.1 4.5c.1.1.3.2.4.3 1.7 1.1 3.8 1.7 6.1 1.4 3.7-.5 6.8-3.4 7.5-7.2.7-3.9-1.2-7.4-4.2-9.1.2-.2 3.8-5.1 4.1-6.2h2.9" class="st240"/><circle cx="359.3" cy="527.8" r="27.7" class="st241"/><circle cx="332.9" cy="494" r="2" class="st59"/><circle cx="385.9" cy="494" r="2" class="st59"/><circle cx="332.9" cy="566" r="2" class="st59"/><circle cx="385.9" cy="566" r="2" class="st59"/><circle cx="359.2" cy="527.8" r="2.2" class="st59"/><circle cx="359.2" cy="527.8" r="2.2" class="st59"/><circle cx="359.2" cy="527.8" r="5.2" class="st242"/><path d="M380.6 548.4l-29.3-9h-.3c-.7 0-1.3.6-1.3 1.4 0 .4.2.8.5 1.1l24.5 17.8c1 .7 2.2 1 3.5 1 3.5 0 6.4-2.8 6.4-6.4 0-2.6-1.7-4.9-4-5.9z" class="st183"/><circle cx="377.9" cy="554" r="4" class="st0"/><path d="M472.9 492.3c0-1.2-1-2.2-2.2-2.2h-56.5c-1.2 0-2.2 1-2.2 2.3v75.5c0 1.2 1 2.3 2.3 2.3h56.6c1.2 0 2.3-1 2.3-2.2v-75.7z" class="st205"/><path d="M442.4 570v-11.9c2.6-.1 5.2-.5 7.6-1.2l6.1 4.5c.1.1.3.2.4.3 1.7 1.1 3.8 1.7 6.1 1.4 3.7-.5 6.8-3.4 7.5-7.2.7-3.9-1.2-7.4-4.2-9.1.2-.2 3.8-5.1 4.1-6.2h2.9" class="st240"/><circle cx="442.3" cy="527.8" r="27.7" class="st241"/><circle cx="415.9" cy="494" r="2" class="st59"/><circle cx="468.9" cy="494" r="2" class="st59"/><circle cx="415.9" cy="566" r="2" class="st59"/><circle cx="468.9" cy="566" r="2" class="st59"/><circle cx="442.2" cy="527.8" r="2.2" class="st59"/><circle cx="442.2" cy="527.8" r="2.2" class="st59"/><circle cx="442.2" cy="527.8" r="5.2" class="st242"/><path d="M463.7 548.4l-29.3-9h-.3c-.7 0-1.3.6-1.3 1.4 0 .4.2.8.5 1.1l24.5 17.8c1 .7 2.2 1 3.5 1 3.5 0 6.4-2.8 6.4-6.4-.1-2.6-1.7-4.9-4-5.9z" class="st183"/><circle cx="460.9" cy="554" r="4" class="st0"/><path d="M245 588.5H77.8c-3 0-5.4-2.4-5.4-5.4V373.9c0-3 2.4-5.4 5.4-5.4H245c3 0 5.4 2.4 5.4 5.4v209.2c0 3-2.4 5.4-5.4 5.4z" class="st194"/><path d="M245 588.5H77.8c-3 0-5.4-2.4-5.4-5.4V373.9c0-3 2.4-5.4 5.4-5.4H245c3 0 5.4 2.4 5.4 5.4v209.2c0 3-2.4 5.4-5.4 5.4z" class="st238"/><text transform="translate(185.155 578.975)" class="st234 st239">EXPORT 4</text><text transform="translate(101.11 578.975)" class="st234 st239">EXPORT 3</text><text transform="translate(102.155 475.356)" class="st234 st239">EXPORT 1</text><text transform="translate(185.155 474.927)" class="st234 st239">EXPORT 2</text><path d="M149.9 388.3c0-1.2-1-2.2-2.2-2.2H91.2c-1.2 0-2.2 1-2.2 2.3v75.5c0 1.2 1 2.3 2.3 2.3h56.6c1.2 0 2.3-1 2.3-2.2v-75.7z" class="st205"/><path d="M119.4 466v-11.9c2.6-.1 5.2-.5 7.6-1.2l6.1 4.5c.1.1.3.2.4.3 1.7 1.1 3.8 1.7 6.1 1.4 3.7-.5 6.8-3.4 7.5-7.2.7-3.9-1.2-7.4-4.2-9.1.2-.2 3.8-5.1 4.1-6.2h2.9" class="st240"/><circle cx="119.7" cy="423.6" r="27.7" class="st241"/><circle cx="93.9" cy="390" r="2" class="st59"/><circle cx="145.9" cy="390" r="2" class="st59"/><circle cx="93.9" cy="462" r="2" class="st59"/><circle cx="145.9" cy="462" r="2" class="st59"/><circle cx="119.6" cy="423.6" r="2.2" class="st59"/><circle cx="119.6" cy="423.6" r="2.2" class="st59"/><circle cx="119.6" cy="423.6" r="5.2" class="st242"/><path d="M141 444.3l-29.3-9h-.3c-.7 0-1.3.6-1.3 1.4 0 .4.2.8.5 1.1l24.5 17.8c1 .7 2.2 1 3.5 1 3.5 0 6.4-2.8 6.4-6.4-.1-2.7-1.7-4.9-4-5.9z" class="st183"/><circle cx="138.9" cy="450" r="4" class="st0"/><path d="M232.9 388.3c0-1.2-1-2.2-2.2-2.2h-56.5c-1.2 0-2.2 1-2.2 2.3v75.5c0 1.2 1 2.3 2.3 2.3h56.6c1.2 0 2.3-1 2.3-2.2v-75.7z" class="st205"/><path d="M202.4 466v-11.9c2.6-.1 5.2-.5 7.6-1.2l6.1 4.5c.1.1.3.2.4.3 1.7 1.1 3.8 1.7 6.1 1.4 3.7-.5 6.8-3.4 7.5-7.2.7-3.9-1.2-7.4-4.2-9.1.2-.2 3.8-5.1 4.1-6.2h2.9" class="st240"/><circle cx="202.7" cy="423.6" r="27.7" class="st241"/><circle cx="176.9" cy="390" r="2" class="st59"/><circle cx="228.9" cy="390" r="2" class="st59"/><circle cx="176.9" cy="462" r="2" class="st59"/><circle cx="228.9" cy="462" r="2" class="st59"/><circle cx="202.6" cy="423.6" r="2.2" class="st59"/><circle cx="202.6" cy="423.6" r="2.2" class="st59"/><circle cx="202.6" cy="423.6" r="5.2" class="st242"/><path d="M224.1 444.3l-29.3-9h-.3c-.7 0-1.3.6-1.3 1.4 0 .4.2.8.5 1.1l24.5 17.8c1 .7 2.2 1 3.5 1 3.5 0 6.4-2.8 6.4-6.4-.1-2.7-1.8-4.9-4-5.9z" class="st183"/><circle cx="221.9" cy="450" r="4" class="st0"/><path d="M149.9 492.3c0-1.2-1-2.2-2.2-2.2H91.2c-1.2 0-2.2 1-2.2 2.3v75.5c0 1.2 1 2.3 2.3 2.3h56.6c1.2 0 2.3-1 2.3-2.2v-75.7z" class="st205"/><path d="M119.4 570v-11.9c2.6-.1 5.2-.5 7.6-1.2l6.1 4.5c.1.1.3.2.4.3 1.7 1.1 3.8 1.7 6.1 1.4 3.7-.5 6.8-3.4 7.5-7.2.7-3.9-1.2-7.4-4.2-9.1.2-.2 3.8-5.1 4.1-6.2h2.9" class="st240"/><circle cx="119.7" cy="527.8" r="27.7" class="st241"/><circle cx="93.9" cy="494" r="2" class="st59"/><circle cx="145.9" cy="494" r="2" class="st59"/><circle cx="93.9" cy="566" r="2" class="st59"/><circle cx="145.9" cy="566" r="2" class="st59"/><circle cx="119.6" cy="527.8" r="2.2" class="st59"/><circle cx="119.6" cy="527.8" r="2.2" class="st59"/><circle cx="119.6" cy="527.8" r="5.2" class="st242"/><path d="M141 548.4l-29.3-9h-.3c-.7 0-1.3.6-1.3 1.4 0 .4.2.8.5 1.1l24.5 17.8c1 .7 2.2 1 3.5 1 3.5 0 6.4-2.8 6.4-6.4-.1-2.6-1.7-4.9-4-5.9z" class="st183"/><circle cx="138.9" cy="554" r="4" class="st0"/><path d="M232.9 492.3c0-1.2-1-2.2-2.2-2.2h-56.5c-1.2 0-2.2 1-2.2 2.3v75.5c0 1.2 1 2.3 2.3 2.3h56.6c1.2 0 2.3-1 2.3-2.2v-75.7z" class="st205"/><path d="M202.4 570v-11.9c2.6-.1 5.2-.5 7.6-1.2l6.1 4.5c.1.1.3.2.4.3 1.7 1.1 3.8 1.7 6.1 1.4 3.7-.5 6.8-3.4 7.5-7.2.7-3.9-1.2-7.4-4.2-9.1.2-.2 3.8-5.1 4.1-6.2h2.9" class="st240"/><circle cx="202.7" cy="527.8" r="27.7" class="st241"/><circle cx="176.9" cy="494" r="2" class="st59"/><circle cx="228.9" cy="494" r="2" class="st59"/><circle cx="176.9" cy="566" r="2" class="st59"/><circle cx="228.9" cy="566" r="2" class="st59"/><circle cx="202.6" cy="527.8" r="2.2" class="st59"/><circle cx="202.6" cy="527.8" r="2.2" class="st59"/><circle cx="202.6" cy="527.8" r="5.2" class="st242"/><path d="M224.1 548.4l-29.3-9h-.3c-.7 0-1.3.6-1.3 1.4 0 .4.2.8.5 1.1l24.5 17.8c1 .7 2.2 1 3.5 1 3.5 0 6.4-2.8 6.4-6.4-.1-2.6-1.8-4.9-4-5.9z" class="st183"/><circle cx="221.9" cy="554" r="4" class="st0"/><path d="M616.9 148.5h429" class="st243"/><circle cx="617" cy="148.5" r="2.1" class="st142"/><path d="M667.9 66.5h380" class="st243"/><circle cx="668" cy="66.5" r="2.1" class="st142"/><path d="M958.9 291.5h88" class="st243"/><circle cx="959" cy="291.5" r="2.1" class="st142"/><path d="M964 588.5H796.8c-3 0-5.4-2.4-5.4-5.4V373.9c0-3 2.4-5.4 5.4-5.4H964c3 0 5.4 2.4 5.4 5.4v209.2c0 3-2.4 5.4-5.4 5.4z" class="st194"/><path d="M964 588.5H796.8c-3 0-5.4-2.4-5.4-5.4V373.9c0-3 2.4-5.4 5.4-5.4H964c3 0 5.4 2.4 5.4 5.4v209.2c0 3-2.4 5.4-5.4 5.4z" class="st238"/><text transform="translate(903.98 578.975)" class="st234 st239">EXPORT 4</text><text transform="translate(819.935 578.975)" class="st234 st239">EXPORT 3</text><text transform="translate(820.98 475.356)" class="st234 st239">EXPORT 1</text><text transform="translate(903.98 474.927)" class="st234 st239">EXPORT 2</text><path d="M868.9 388.3c0-1.2-1-2.2-2.2-2.2h-56.5c-1.2 0-2.2 1-2.2 2.3v75.5c0 1.2 1 2.3 2.3 2.3h56.6c1.2 0 2.3-1 2.3-2.2v-75.7z" class="st205"/><path d="M838.4 466v-11.9c2.6-.1 5.2-.5 7.6-1.2l6.1 4.5c.1.1.3.2.4.3 1.7 1.1 3.8 1.7 6.1 1.4 3.7-.5 6.8-3.4 7.5-7.2.7-3.9-1.2-7.4-4.2-9.1.2-.2 3.8-5.1 4.1-6.2h2.9" class="st240"/><circle cx="838.5" cy="423.6" r="27.7" class="st241"/><circle cx="811.9" cy="390" r="2" class="st59"/><circle cx="864.9" cy="390" r="2" class="st59"/><circle cx="811.9" cy="462" r="2" class="st59"/><circle cx="864.9" cy="462" r="2" class="st59"/><circle cx="838.4" cy="423.6" r="2.2" class="st59"/><circle cx="838.4" cy="423.6" r="2.2" class="st59"/><circle cx="838.4" cy="423.6" r="5.2" class="st242"/><path d="M859.8 444.3l-29.3-9h-.3c-.7 0-1.3.6-1.3 1.4 0 .4.2.8.5 1.1l24.5 17.8c1 .7 2.2 1 3.5 1 3.5 0 6.4-2.8 6.4-6.4 0-2.7-1.7-4.9-4-5.9z" class="st183"/><circle cx="856.9" cy="450" r="4" class="st0"/><path d="M951.9 388.3c0-1.2-1-2.2-2.2-2.2h-56.5c-1.2 0-2.2 1-2.2 2.3v75.5c0 1.2 1 2.3 2.3 2.3h56.6c1.2 0 2.3-1 2.3-2.2v-75.7z" class="st205"/><path d="M921.4 466v-11.9c2.6-.1 5.2-.5 7.6-1.2l6.1 4.5c.1.1.3.2.4.3 1.7 1.1 3.8 1.7 6.1 1.4 3.7-.5 6.8-3.4 7.5-7.2.7-3.9-1.2-7.4-4.2-9.1.2-.2 3.8-5.1 4.1-6.2h2.9" class="st240"/><circle cx="921.5" cy="423.6" r="27.7" class="st241"/><circle cx="894.9" cy="390" r="2" class="st59"/><circle cx="947.9" cy="390" r="2" class="st59"/><circle cx="894.9" cy="462" r="2" class="st59"/><circle cx="947.9" cy="462" r="2" class="st59"/><circle cx="921.4" cy="423.6" r="2.2" class="st59"/><circle cx="921.4" cy="423.6" r="2.2" class="st59"/><circle cx="921.4" cy="423.6" r="5.2" class="st242"/><path d="M942.9 444.3l-29.3-9h-.3c-.7 0-1.3.6-1.3 1.4 0 .4.2.8.5 1.1l24.5 17.8c1 .7 2.2 1 3.5 1 3.5 0 6.4-2.8 6.4-6.4-.1-2.7-1.7-4.9-4-5.9z" class="st183"/><circle cx="940.9" cy="450" r="4" class="st0"/><path d="M868.9 492.3c0-1.2-1-2.2-2.2-2.2h-56.5c-1.2 0-2.2 1-2.2 2.3v75.5c0 1.2 1 2.3 2.3 2.3h56.6c1.2 0 2.3-1 2.3-2.2v-75.7z" class="st205"/><path d="M838.4 570v-11.9c2.6-.1 5.2-.5 7.6-1.2l6.1 4.5c.1.1.3.2.4.3 1.7 1.1 3.8 1.7 6.1 1.4 3.7-.5 6.8-3.4 7.5-7.2.7-3.9-1.2-7.4-4.2-9.1.2-.2 3.8-5.1 4.1-6.2h2.9" class="st240"/><circle cx="838.5" cy="527.8" r="27.7" class="st241"/><circle cx="811.9" cy="494" r="2" class="st59"/><circle cx="864.9" cy="494" r="2" class="st59"/><circle cx="811.9" cy="566" r="2" class="st59"/><circle cx="864.9" cy="566" r="2" class="st59"/><circle cx="838.4" cy="527.8" r="2.2" class="st59"/><circle cx="838.4" cy="527.8" r="2.2" class="st59"/><circle cx="838.4" cy="527.8" r="5.2" class="st242"/><path d="M859.8 548.4l-29.3-9h-.3c-.7 0-1.3.6-1.3 1.4 0 .4.2.8.5 1.1l24.5 17.8c1 .7 2.2 1 3.5 1 3.5 0 6.4-2.8 6.4-6.4 0-2.6-1.7-4.9-4-5.9z" class="st183"/><circle cx="856.9" cy="554" r="4" class="st0"/><path d="M951.9 492.3c0-1.2-1-2.2-2.2-2.2h-56.5c-1.2 0-2.2 1-2.2 2.3v75.5c0 1.2 1 2.3 2.3 2.3h56.6c1.2 0 2.3-1 2.3-2.2v-75.7z" class="st205"/><path d="M921.4 570v-11.9c2.6-.1 5.2-.5 7.6-1.2l6.1 4.5c.1.1.3.2.4.3 1.7 1.1 3.8 1.7 6.1 1.4 3.7-.5 6.8-3.4 7.5-7.2.7-3.9-1.2-7.4-4.2-9.1.2-.2 3.8-5.1 4.1-6.2h2.9" class="st240"/><circle cx="921.5" cy="527.8" r="27.7" class="st241"/><circle cx="894.9" cy="494" r="2" class="st59"/><circle cx="947.9" cy="494" r="2" class="st59"/><circle cx="894.9" cy="566" r="2" class="st59"/><circle cx="947.9" cy="566" r="2" class="st59"/><circle cx="921.4" cy="527.8" r="2.2" class="st59"/><circle cx="921.4" cy="527.8" r="2.2" class="st59"/><circle cx="921.4" cy="527.8" r="5.2" class="st242"/><path d="M942.9 548.4l-29.3-9h-.3c-.7 0-1.3.6-1.3 1.4 0 .4.2.8.5 1.1l24.5 17.8c1 .7 2.2 1 3.5 1 3.5 0 6.4-2.8 6.4-6.4-.1-2.6-1.7-4.9-4-5.9z" class="st183"/><circle cx="940.9" cy="554" r="4" class="st0"/><path d="M958.9 481.5h88" class="st243"/><circle cx="959" cy="481.5" r="2.1" class="st142"/></svg>