<svg xmlns="http://www.w3.org/2000/svg" viewBox="0 0 1200 675"><style>.st0{fill:#FFFFFF;} .st1{fill:#343435;} .st2{fill:#494949;} .st3{fill:#C4C4C4;} .st4{fill:#21211F;} .st5{fill:#E6E6E6;} .st6{opacity:0.56;fill:url(#SVGID_1_);} .st7{fill:#39B54A;} .st8{opacity:0.56;fill:url(#SVGID_2_);} .st9{opacity:0.56;fill:url(#SVGID_3_);} .st10{opacity:0.56;fill:url(#SVGID_4_);} .st11{opacity:0.56;fill:url(#SVGID_5_);} .st12{opacity:0.56;fill:url(#SVGID_6_);} .st13{opacity:0.56;fill:url(#SVGID_7_);} .st14{opacity:0.56;fill:url(#SVGID_8_);} .st15{opacity:0.56;fill:url(#SVGID_9_);} .st16{opacity:0.56;fill:url(#SVGID_10_);} .st17{opacity:0.56;fill:url(#SVGID_11_);} .st18{opacity:0.56;fill:url(#SVGID_12_);} .st19{opacity:0.56;fill:url(#SVGID_13_);} .st20{opacity:0.56;fill:url(#SVGID_14_);} .st21{opacity:0.56;fill:url(#SVGID_15_);} .st22{opacity:0.56;fill:url(#SVGID_16_);} .st23{opacity:0.56;fill:url(#SVGID_17_);} .st24{opacity:0.56;fill:url(#SVGID_18_);} .st25{opacity:0.56;fill:url(#SVGID_19_);} .st26{opacity:0.56;fill:url(#SVGID_20_);} .st27{opacity:0.56;fill:url(#SVGID_21_);} .st28{opacity:0.56;fill:url(#SVGID_22_);} .st29{opacity:0.56;fill:url(#SVGID_23_);} .st30{opacity:0.56;fill:url(#SVGID_24_);} .st31{opacity:0.56;fill:url(#SVGID_25_);} .st32{opacity:0.56;fill:url(#SVGID_26_);} .st33{opacity:0.56;fill:url(#SVGID_27_);} .st34{opacity:0.56;fill:url(#SVGID_28_);} .st35{opacity:0.56;fill:url(#SVGID_29_);} .st36{opacity:0.56;fill:url(#SVGID_30_);} .st37{opacity:0.56;fill:url(#SVGID_31_);} .st38{opacity:0.56;fill:url(#SVGID_32_);} .st39{opacity:0.56;fill:url(#SVGID_33_);} .st40{fill:none;stroke:#000000;stroke-miterlimit:10;} .st41{fill:none;stroke:#CCCCCC;stroke-width:2;stroke-miterlimit:10;} .st42{fill:#CCCCCC;} .st43{fill:none;stroke:#666666;stroke-width:2;stroke-miterlimit:10;} .st44{fill:#666666;} .st45{fill:none;stroke:#EF524F;stroke-width:2;stroke-miterlimit:10;stroke-dasharray:12,12;} .st46{fill:#EF524F;} .st47{fill:#62757C;} .st48{fill:#23363A;} .st49{fill:#FEFBF6;} .st50{fill:#F7F7F7;stroke:#23363A;stroke-width:6;stroke-miterlimit:10;} .st51{fill:none;stroke:#23363A;stroke-width:3;stroke-miterlimit:10;} .st52{fill:#F7F7F7;} .st53{fill:#23363A;stroke:#F7F7F7;stroke-width:2;stroke-miterlimit:10;} .st54{fill:#37474F;} .st55{fill:#EDEAE2;} .st56{fill:#4C626D;} .st57{fill:#E8EDEF;} .st58{fill:#515151;} .st59{fill:#939393;} .st60{opacity:0.56;fill:url(#SVGID_34_);} .st61{opacity:0.56;fill:url(#SVGID_35_);} .st62{opacity:0.56;fill:url(#SVGID_36_);} .st63{opacity:0.56;fill:url(#SVGID_37_);} .st64{opacity:0.56;fill:url(#SVGID_38_);} .st65{opacity:0.56;fill:url(#SVGID_39_);} .st66{opacity:0.56;fill:url(#SVGID_40_);} .st67{opacity:0.56;fill:url(#SVGID_41_);} .st68{opacity:0.56;fill:url(#SVGID_42_);} .st69{opacity:0.56;fill:url(#SVGID_43_);} .st70{opacity:0.56;fill:url(#SVGID_44_);} .st71{opacity:0.56;fill:url(#SVGID_45_);} .st72{opacity:0.56;fill:url(#SVGID_46_);} .st73{opacity:0.56;fill:url(#SVGID_47_);} .st74{opacity:0.56;fill:url(#SVGID_48_);} .st75{opacity:0.56;fill:url(#SVGID_49_);} .st76{opacity:0.56;fill:url(#SVGID_50_);} .st77{opacity:0.56;fill:url(#SVGID_51_);} .st78{opacity:0.56;fill:url(#SVGID_52_);} .st79{opacity:0.56;fill:url(#SVGID_53_);} .st80{opacity:0.56;fill:url(#SVGID_54_);} .st81{opacity:0.56;fill:url(#SVGID_55_);} .st82{opacity:0.56;fill:url(#SVGID_56_);} .st83{opacity:0.56;fill:url(#SVGID_57_);} .st84{opacity:0.56;fill:url(#SVGID_58_);} .st85{opacity:0.56;fill:url(#SVGID_59_);} .st86{opacity:0.56;fill:url(#SVGID_60_);} .st87{opacity:0.56;fill:url(#SVGID_61_);} .st88{opacity:0.56;fill:url(#SVGID_62_);} .st89{opacity:0.56;fill:url(#SVGID_63_);} .st90{opacity:0.56;fill:url(#SVGID_64_);} .st91{opacity:0.56;fill:url(#SVGID_65_);} .st92{opacity:0.56;fill:url(#SVGID_66_);} .st93{fill:none;stroke:#898989;stroke-miterlimit:10;} .st94{fill:#898989;} .st95{fill:none;stroke:#666666;stroke-miterlimit:10;} .st96{fill:none;stroke:#EF524F;stroke-miterlimit:10;} .st97{fill:none;stroke:#EF524F;stroke-miterlimit:10;stroke-dasharray:12.0065,12.0065;} .st98{fill:#B2B2B2;} .st99{fill:#5A5C5E;} .st100{fill:#DBDBDB;} .st101{fill:#6A6B6B;} .st102{fill:none;stroke:#EF524F;stroke-miterlimit:10;stroke-dasharray:11.6391,11.6391;} .st103{fill:none;stroke:#EF524F;stroke-miterlimit:10;stroke-dasharray:12.7731,12.7731;} .st104{fill:none;stroke:#EF524F;stroke-miterlimit:10;stroke-dasharray:11.9372,11.9372;} .st105{opacity:0.56;fill:url(#SVGID_67_);} .st106{opacity:0.56;fill:url(#SVGID_68_);} .st107{opacity:0.56;fill:url(#SVGID_69_);} .st108{opacity:0.56;fill:url(#SVGID_70_);} .st109{opacity:0.56;fill:url(#SVGID_71_);} .st110{opacity:0.56;fill:url(#SVGID_72_);} .st111{opacity:0.56;fill:url(#SVGID_73_);} .st112{opacity:0.56;fill:url(#SVGID_74_);} .st113{opacity:0.56;fill:url(#SVGID_75_);} .st114{opacity:0.56;fill:url(#SVGID_76_);} .st115{opacity:0.56;fill:url(#SVGID_77_);} .st116{opacity:0.56;fill:url(#SVGID_78_);} .st117{opacity:0.56;fill:url(#SVGID_79_);} .st118{opacity:0.56;fill:url(#SVGID_80_);} .st119{opacity:0.56;fill:url(#SVGID_81_);} .st120{opacity:0.56;fill:url(#SVGID_82_);} .st121{opacity:0.56;fill:url(#SVGID_83_);} .st122{opacity:0.56;fill:url(#SVGID_84_);} .st123{opacity:0.56;fill:url(#SVGID_85_);} .st124{opacity:0.56;fill:url(#SVGID_86_);} .st125{opacity:0.56;fill:url(#SVGID_87_);} .st126{opacity:0.56;fill:url(#SVGID_88_);} .st127{opacity:0.56;fill:url(#SVGID_89_);} .st128{opacity:0.56;fill:url(#SVGID_90_);} .st129{opacity:0.56;fill:url(#SVGID_91_);} .st130{opacity:0.56;fill:url(#SVGID_92_);} .st131{opacity:0.56;fill:url(#SVGID_93_);} .st132{opacity:0.56;fill:url(#SVGID_94_);} .st133{opacity:0.56;fill:url(#SVGID_95_);} .st134{opacity:0.56;fill:url(#SVGID_96_);} .st135{opacity:0.56;fill:url(#SVGID_97_);} .st136{opacity:0.56;fill:url(#SVGID_98_);} .st137{opacity:0.56;fill:url(#SVGID_99_);} .st138{fill:none;stroke:#CCCCCC;stroke-width:1.778;stroke-miterlimit:10;} .st139{fill:none;stroke:#EF524F;stroke-width:1.778;stroke-miterlimit:10;stroke-dasharray:10.6678,10.6678;} .st140{fill:#E5E5E5;} .st141{fill:none;stroke:#666666;stroke-width:1.778;stroke-miterlimit:10;} .st142{fill:#F47B67;} .st143{fill:none;stroke:#EAEAEA;stroke-width:0.8726;stroke-miterlimit:10;} .st144{fill:#727272;} .st145{fill:none;stroke:#EAEAEA;stroke-width:0.75;stroke-miterlimit:10;} .st146{fill:#FFFFFF;stroke:#9B9B9B;stroke-miterlimit:10;} .st147{fill:none;stroke:#9B9B9B;stroke-miterlimit:10;} .st148{fill:#9B9B9B;} .st149{opacity:0.56;fill:url(#SVGID_100_);} .st150{opacity:0.56;fill:url(#SVGID_101_);} .st151{opacity:0.56;fill:url(#SVGID_102_);} .st152{opacity:0.56;fill:url(#SVGID_103_);} .st153{opacity:0.56;fill:url(#SVGID_104_);} .st154{opacity:0.56;fill:url(#SVGID_105_);} .st155{opacity:0.56;fill:url(#SVGID_106_);} .st156{opacity:0.56;fill:url(#SVGID_107_);} .st157{opacity:0.56;fill:url(#SVGID_108_);} .st158{opacity:0.56;fill:url(#SVGID_109_);} .st159{opacity:0.56;fill:url(#SVGID_110_);} .st160{opacity:0.56;fill:url(#SVGID_111_);} .st161{opacity:0.56;fill:url(#SVGID_112_);} .st162{opacity:0.56;fill:url(#SVGID_113_);} .st163{opacity:0.56;fill:url(#SVGID_114_);} .st164{opacity:0.56;fill:url(#SVGID_115_);} .st165{opacity:0.56;fill:url(#SVGID_116_);} .st166{opacity:0.56;fill:url(#SVGID_117_);} .st167{opacity:0.56;fill:url(#SVGID_118_);} .st168{opacity:0.56;fill:url(#SVGID_119_);} .st169{opacity:0.56;fill:url(#SVGID_120_);} .st170{opacity:0.56;fill:url(#SVGID_121_);} .st171{opacity:0.56;fill:url(#SVGID_122_);} .st172{opacity:0.56;fill:url(#SVGID_123_);} .st173{opacity:0.56;fill:url(#SVGID_124_);} .st174{opacity:0.56;fill:url(#SVGID_125_);} .st175{opacity:0.56;fill:url(#SVGID_126_);} .st176{opacity:0.56;fill:url(#SVGID_127_);} .st177{opacity:0.56;fill:url(#SVGID_128_);} .st178{opacity:0.56;fill:url(#SVGID_129_);} .st179{opacity:0.56;fill:url(#SVGID_130_);} .st180{opacity:0.56;fill:url(#SVGID_131_);} .st181{opacity:0.56;fill:url(#SVGID_132_);} .st182{fill:#E8E8E8;stroke:#C6C6C6;stroke-width:1.0826;stroke-miterlimit:10;} .st183{fill:#F15A24;} .st184{fill:#FFFFFF;stroke:#C6C6C6;stroke-width:1.0826;stroke-miterlimit:10;} .st185{fill:#636363;} .st186{fill:none;stroke:#636363;stroke-miterlimit:10;} .st187{fill:none;stroke:#EF524F;stroke-miterlimit:10;stroke-dasharray:12,12;} .st188{fill:none;stroke:#636363;stroke-width:0.6802;stroke-miterlimit:10;} .st189{fill:#FFFFFF;stroke:#636363;stroke-width:0.6802;stroke-miterlimit:10;} .st190{fill:none;stroke:#EF524F;stroke-miterlimit:10;stroke-dasharray:11.4666,11.4666;} .st191{fill:#E8E8E8;stroke:#898989;stroke-width:0.5488;stroke-miterlimit:10;} .st192{fill:#FFFFFF;stroke:#898989;stroke-width:0.5488;stroke-miterlimit:10;} .st193{fill:#22B573;} .st194{fill:#E8E8E8;} .st195{fill:#A8A8A8;} .st196{fill:#777777;} .st197{fill:#4C4C4C;} .st198{fill:none;stroke:#3F3F3F;stroke-miterlimit:10;} .st199{fill:#3F3F3F;} .st200{fill:none;stroke:#5B5B5B;stroke-miterlimit:10;} .st201{fill:#5B5B5B;} .st202{fill:none;stroke:#F47B67;stroke-miterlimit:10;} .st203{fill:#E8E8E8;stroke:#C6C6C6;stroke-miterlimit:10;} .st204{fill:#FFFFFF;stroke:#C6C6C6;stroke-miterlimit:10;} .st205{fill:#BFBFBF;} .st206{fill:none;stroke:#929292;stroke-width:1.0006;stroke-miterlimit:10;} .st207{fill:none;stroke:#939393;stroke-width:2;stroke-miterlimit:10;} .st208{fill:#E8E8E8;stroke:#C6C6C6;stroke-width:1.0171;stroke-miterlimit:10;} .st209{fill:#FFFFFF;stroke:#C6C6C6;stroke-width:1.0171;stroke-miterlimit:10;} .st210{fill:none;stroke:#C6C6C6;stroke-width:1.0171;stroke-miterlimit:10;} .st211{fill:none;stroke:#929292;stroke-width:0.9465;stroke-miterlimit:10;} .st212{fill:#FFFFFF;stroke:#C6C6C6;stroke-width:0.9459;stroke-miterlimit:10;} .st213{fill:none;stroke:#939393;stroke-width:1.8919;stroke-miterlimit:10;} .st214{fill:none;stroke:#EAEAEA;stroke-width:0.6078;stroke-miterlimit:10;} .st215{fill:none;stroke:#CCCCCC;stroke-width:1.5;stroke-miterlimit:10;} .st216{fill:#B3B3B3;} .st217{fill:#FFFFFF;stroke:#000000;stroke-width:0.25;stroke-miterlimit:10;} .st218{clip-path:url(#SVGID_134_);} .st219{clip-path:url(#SVGID_136_);} .st220{clip-path:url(#SVGID_138_);} .st221{fill:#F5F5F5;} .st222{fill:none;stroke:#CECECE;stroke-width:0.413;stroke-miterlimit:10;} .st223{fill:none;stroke:#CCCCCC;stroke-width:0.8606;stroke-miterlimit:10;} .st224{fill:none;stroke:#000000;stroke-width:0.5553;stroke-miterlimit:10;} .st225{fill:none;stroke:#3F3F3F;stroke-width:0.5553;stroke-miterlimit:10;} .st226{fill:none;stroke:#5B5B5B;stroke-width:0.5553;stroke-miterlimit:10;} .st227{fill:none;stroke:#F47B67;stroke-width:0.5553;stroke-miterlimit:10;} .st228{font-family:&apos;Lato-Light&apos;;} .st229{font-size:13.3276px;} .st230{font-size:8.1952px;} .st231{fill:#E8E8E8;stroke:#C6C6C6;stroke-width:0.5553;stroke-miterlimit:10;} .st232{fill:#FFFFFF;stroke:#C6C6C6;stroke-width:0.5499;stroke-miterlimit:10;} .st233{fill:none;stroke:#929292;stroke-width:0.5557;stroke-miterlimit:10;} .st234{fill:#FFFFFF;stroke:#C6C6C6;stroke-width:0.5553;stroke-miterlimit:10;} .st235{fill:none;stroke:#939393;stroke-width:1.1106;stroke-miterlimit:10;} .st236{fill:none;stroke:#3F3F3F;stroke-width:0.5501;stroke-miterlimit:10;} .st237{fill:#E8E8E8;stroke:#C6C6C6;stroke-width:0.5595;stroke-miterlimit:10;} .st238{fill:none;stroke:#C6C6C6;stroke-width:0.5595;stroke-miterlimit:10;} .st239{fill:none;stroke:#929292;stroke-width:0.5207;stroke-miterlimit:10;} .st240{fill:#FFFFFF;stroke:#C6C6C6;stroke-width:0.5204;stroke-miterlimit:10;} .st241{fill:none;stroke:#939393;stroke-width:1.0407;stroke-miterlimit:10;} .st242{fill:none;stroke:#F47B67;stroke-width:0.5501;stroke-miterlimit:10;} .st243{fill:none;stroke:#CECECE;stroke-width:0.3562;stroke-miterlimit:10;} .st244{fill:#FFFFFF;stroke:#9B9B9B;stroke-width:0.474;stroke-miterlimit:10;} .st245{fill:#FFFFFF;stroke:#9B9B9B;stroke-width:0.4641;stroke-miterlimit:10;} .st246{fill:#FFFFFF;stroke:#9B9B9B;stroke-width:0.4611;stroke-miterlimit:10;} .st247{fill:#FFFFFF;stroke:#9B9B9B;stroke-width:0.4612;stroke-miterlimit:10;} .st248{fill:#FFFFFF;stroke:#9B9B9B;stroke-width:0.4783;stroke-miterlimit:10;} .st249{fill:#FFFFFF;stroke:#9B9B9B;stroke-width:0.4741;stroke-miterlimit:10;} .st250{fill:#FFFFFF;stroke:#9B9B9B;stroke-width:0.4764;stroke-miterlimit:10;} .st251{fill:#FFFFFF;stroke:#9B9B9B;stroke-width:0.4785;stroke-miterlimit:10;} .st252{fill:#FFFFFF;stroke:#9B9B9B;stroke-width:0.4207;stroke-miterlimit:10;} .st253{fill:#FFFFFF;stroke:#9B9B9B;stroke-width:0.4243;stroke-miterlimit:10;} .st254{fill:#FFFFFF;stroke:#9B9B9B;stroke-width:0.4302;stroke-miterlimit:10;} .st255{fill:#FFFFFF;stroke:#9B9B9B;stroke-width:0.4799;stroke-miterlimit:10;} .st256{fill:#FFFFFF;stroke:#9B9B9B;stroke-width:0.479;stroke-miterlimit:10;} .st257{fill:none;stroke:#9B9B9B;stroke-width:0.474;stroke-miterlimit:10;}</style><path d="M693.7 220H502.5c-2.8 0-5-2.2-5-5v-27c0-2.8 2.2-5 5-5h192.2c2.7 0 4.9 2.2 4.9 4.9v26.4c-.1 3.2-2.7 5.7-5.9 5.7z" class="st42"/><path d="M497.5 192h202v6h-202z" class="st194"/><path d="M547 214h-42c-1.4 0-2.5-1.1-2.5-2.5v-7c0-1.4 1.1-2.5 2.5-2.5h42c1.4 0 2.5 1.1 2.5 2.5v7c0 1.4-1.1 2.5-2.5 2.5z" class="st195"/><path d="M545.4 212h-2.8c-1.7 0-3.1-1.4-3.1-3.1v-2.8c0-1.7 1.4-3.1 3.1-3.1h2.8c1.7 0 3.1 1.4 3.1 3.1v2.8c0 1.8-1.4 3.1-3.1 3.1zm-12 0h-2.8c-1.7 0-3.1-1.4-3.1-3.1v-2.8c0-1.7 1.4-3.1 3.1-3.1h2.8c1.7 0 3.1 1.4 3.1 3.1v2.8c0 1.8-1.4 3.1-3.1 3.1zm-12 0h-2.8c-1.7 0-3.1-1.4-3.1-3.1v-2.8c0-1.7 1.4-3.1 3.1-3.1h2.8c1.7 0 3.1 1.4 3.1 3.1v2.8c0 1.8-1.4 3.1-3.1 3.1zm-11 0h-2.8c-1.7 0-3.1-1.4-3.1-3.1v-2.8c0-1.7 1.4-3.1 3.1-3.1h2.8c1.7 0 3.1 1.4 3.1 3.1v2.8c0 1.8-1.4 3.1-3.1 3.1z" class="st196"/><path d="M509.5 199.7l-1.1.1-.1-.4.6-.4h.6v2-1.3zm10 1.4l.8-.6c.1-.1.1-.1.2-.1s.1-.1.1-.1l.1-.1v-.1c0-.1 0-.2-.1-.2 0 0-.1-.1-.2-.1s-.2 0-.2.1l-.2.2-.3-.3.2-.2s.1-.1.2-.1.1-.1.2-.1h.3c.1 0 .2 0 .3.1.1 0 .2.1.2.1l.2.2c0 .1-.6.3-.6.3s.7.2.6.3c0 .1-.1.1-.1.2s-.1.1-.2.2-.2.1-.2.2l-.4.3h1.3v1h-2v-1.2zm12.5.4c-.2 0-.4 0-.5-.1-.1-.1-.3-.2-.3-.3l.3-.3.2.2c.1 0 .2.1.3.1.1 0 .2 0 .2-.1.1 0 .1-.1.3-.2-.2-.1-.2-.2-.3-.2-.1 0-.2-.1-.3-.5h-.2l-.1.2.5-1.2h-.6 1v.6l-.3.5c.1 0 .2 0 .2.1.1 0 .1.1.2.1.1.1.1.1.1.2s.8.3.8.3-.7.2-.8.3c0 .1-.1.2-.2.2l-.2.2c-.1-.1-.2-.1-.3-.1zm11.5-.5h-.9l-.1-.4 1.2-1.6h-.3v1h1v1h-.9v1-1zm0 0v-.7l-.6.7h.6z" class="st197"/><circle cx="506" cy="204.5" r=".5" class="st193"/><circle cx="512" cy="204.5" r=".5" class="st193"/><circle cx="517" cy="204.5" r=".5" class="st193"/><circle cx="523" cy="204.5" r=".5" class="st193"/><circle cx="529" cy="204.5" r=".5" class="st193"/><circle cx="535" cy="204.5" r=".5" class="st193"/><circle cx="541" cy="204.5" r=".5" class="st193"/><circle cx="547" cy="204.5" r=".5" class="st193"/><path d="M596 214h-42c-1.4 0-2.5-1.1-2.5-2.5v-7c0-1.4 1.1-2.5 2.5-2.5h42c1.4 0 2.5 1.1 2.5 2.5v7c0 1.4-1.1 2.5-2.5 2.5z" class="st195"/><path d="M593.4 212h-2.8c-1.7 0-3.1-1.4-3.1-3.1v-2.8c0-1.7 1.4-3.1 3.1-3.1h2.8c1.7 0 3.1 1.4 3.1 3.1v2.8c0 1.8-1.4 3.1-3.1 3.1zm-12 0h-2.8c-1.7 0-3.1-1.4-3.1-3.1v-2.8c0-1.7 1.4-3.1 3.1-3.1h2.8c1.7 0 3.1 1.4 3.1 3.1v2.8c0 1.8-1.4 3.1-3.1 3.1zm-11 0h-2.8c-1.7 0-3.1-1.4-3.1-3.1v-2.8c0-1.7 1.4-3.1 3.1-3.1h2.8c1.7 0 3.1 1.4 3.1 3.1v2.8c0 1.8-1.4 3.1-3.1 3.1zm-12 0h-2.8c-1.7 0-3.1-1.4-3.1-3.1v-2.8c0-1.7 1.4-3.1 3.1-3.1h2.8c1.7 0 3.1 1.4 3.1 3.1v2.8c0 1.8-1.4 3.1-3.1 3.1z" class="st196"/><path d="M557.3 201.5c-.2 0-.3 0-.5-.1-.1-.1-.2-.1-.4-.2l.3-.3c.1.1.2.1.3.2.1 0 .2.1.3.1.1 0 .2 0 .3-.1.1 0-.1-.2-.1-.2s.2-.2.1-.2-.2-.1-.3-.1h-.2c-.1 0-.1 0-.2.1l-.3-.2.1-1.3h.8-.4v1.1h.6c.1 0 .2.1.3.1l.2.2s.1.2-.6.3c.7.1.7.2.6.3 0 .1-.1.2-.2.2-.1.1-.2.1-.3.2-.1-.1-.2-.1-.4-.1zm11.6 0c-.1 0-.3 0-.4-.1-.1 0-.2-.1-.3-.2-.1-.1-.1-.2-.2-.3 0-.1-.1-.3-.6-.5.6-.2.6-.3.6-.5 0-.1.1-.3.2-.4.1-.1.2-.2.3-.2.1-.1.3-.1.4-.1h.2c.1 0 .1 0 .2.1.1 0 .1.1.2.1s.1.1.2.1l-.2.4s-.1 0-.1-.1h-.5l-.1.1c0 .1-.1.1-.1.2v.2c.1 0 .1-.1.2-.1h.3s.2 0 .3.1c.1 0 .2.1.2.1l.2.2c0 .1.1.2-.2.3.3.1.3.2.2.3 0 .1-.1.2-.2.2-.1.1-.2.1-.3.2-.2-.1-.3-.1-.5-.1zm0-.4c.1 0 .2 0 .3-.1.1-.1.1-.1.3-.2-.2-.1-.2-.2-.3-.2-.1-.1-.2-.1-.3-.1-.1 0-.2 0-.3.1-.1.1-.1.1-.1.2.1.1.1.2.2.2 0 .1.1.1.2.1zm11.8-2.1h-1.2 2v.6l-1.2 1.4h-.5l.9-2zm11.3 2.5h-.3c-.1 0-.2-.1-.3-.1l-.2-.2c0-.1-.8-.3-.8-.3s.7-.2.8-.3c.1-.1.2-.1.3-.2-.1 0-.1-.1-.2-.2 0-.1.1-.3.1-.3l-.2-.2c0-.1.1-.1.2-.2.1 0 .2-.1.2-.1h.3c.1 0 .2 0 .3.1.1 0 .2.1.2.1l.2.2c0 .1.7.2.7.2s-.7.2-.7.3c0 .1-.1.1-.2.2.1.1.2.1.3.2.1.1-.3.3-.3.3s.4.2.3.3-.1.2-.2.2c-.1.1-.2.1-.3.1.1-.1 0-.1-.2-.1zm0-.4c.1 0 .2 0 .3-.1.1 0 .1-.1.2-.2l-.2-.2c-.1 0-.2-.1-.3-.1-.1 0-.2 0-.3.1-.1.1-.1.1-.3.2.2.1.2.1.3.2.1.1.2.1.3.1zm0-.9c.1 0 .2 0 .2-.1.1 0 .1-.1.2-.2l-.2-.2s-.1-.1-.2-.1-.2 0-.2.1-.1.1-.3.2c.3.1.3.1.3.2.1.1.1.1.2.1z" class="st197"/><circle cx="554" cy="204.5" r=".5" class="st193"/><circle cx="560" cy="204.5" r=".5" class="st193"/><circle cx="566" cy="204.5" r=".5" class="st193"/><circle cx="572" cy="204.5" r=".5" class="st193"/><circle cx="577" cy="204.5" r=".5" class="st193"/><circle cx="584" cy="204.5" r=".5" class="st193"/><circle cx="589" cy="204.5" r=".5" class="st193"/><circle cx="595" cy="204.5" r=".5" class="st193"/><circle cx="500" cy="207.5" r="1.5" class="st193"/><path d="M644 214h-42c-1.4 0-2.5-1.1-2.5-2.5v-7c0-1.4 1.1-2.5 2.5-2.5h42c1.4 0 2.5 1.1 2.5 2.5v7c0 1.4-1.1 2.5-2.5 2.5z" class="st195"/><path d="M642.4 212h-2.8c-1.7 0-3.1-1.4-3.1-3.1v-2.8c0-1.7 1.4-3.1 3.1-3.1h2.8c1.7 0 3.1 1.4 3.1 3.1v2.8c0 1.8-1.4 3.1-3.1 3.1zm-12 0h-2.8c-1.7 0-3.1-1.4-3.1-3.1v-2.8c0-1.7 1.4-3.1 3.1-3.1h2.8c1.7 0 3.1 1.4 3.1 3.1v2.8c0 1.8-1.4 3.1-3.1 3.1zm-12 0h-2.8c-1.7 0-3.1-1.4-3.1-3.1v-2.8c0-1.7 1.4-3.1 3.1-3.1h2.8c1.7 0 3.1 1.4 3.1 3.1v2.8c0 1.8-1.4 3.1-3.1 3.1zm-11 0h-2.8c-1.7 0-3.1-1.4-3.1-3.1v-2.8c0-1.7 1.4-3.1 3.1-3.1h2.8c1.7 0 3.1 1.4 3.1 3.1v2.8c0 1.8-1.4 3.1-3.1 3.1z" class="st196"/><path d="M605.8 201.4c-.2 0-.3 0-.4-.1-.1 0-.2-.1-.3-.2l.3-.4c.1.1.2.1.2.1.1 0 .2.1.3.1.1 0 .2 0 .3-.1.1-.1.1-.2.1-.4 0 .1-.1.1-.2.1h-.5l-.2-.1-.2-.2c0-.1-.1-.2-.6-.3.5-.1.6-.2.6-.3s.1-.2.2-.2c.1-.1.2-.1.3-.2.1 0 .2-.1.3-.1h.4c.1 0 .1 0 .1.1l.1.1.1.1c0 .1.1.1.1.2s0 .1.1.2c0 .1 0 .2-.2.3.3.2.3.3.2.5 0 .2-.1.3-.2.4-.1.1-.2.2-.3.2-.3.2-.4.2-.6.2zm.1-1.2c.1 0 .2 0 .3-.1.1-.1.1-.1.3-.2-.2-.1-.2-.2-.3-.2-.1-.1-.2-.1-.3-.1-.1 0-.2 0-.3.1-.1.1-.1.1-.1.2s.1.2.1.2c.1.1.2.1.3.1zm11.6-.5l-1.6.1-.1-.4.6-.3h.1v2h1v-1.4z" class="st197"/><path d="M618.5 201.5c-.1 0-.3 0-.4-.1-.1-.1-.2-.1-.3-.2-.1-.1-.1-.2-.2-.4 0-.1-.1-.3-.1-.5s0-.3.1-.5c.1-.1.1-.3.2-.4.1-.1.2-.2.3-.2s.3-.1.4-.1c.2 0 .3 0 .4.1.1.1.2.1.3.2.1.1.2.2.2.4s.1.3.1.5 0 .3-.1.5-.1.3-.2.4l-.3.3h-.4zm-.5-.5h.2c.1 0 .1-.1.2-.1 0-.1.1-.1.1-.2v-.6c0-.1-.1-.2-.1-.2 0-.1-.1-.1-.2-.1s-.1-.1-.2-.1-.1 0-.2.1c-.1 0-.1.1-.2.2 0 .1-.1.1-.1.2v.6c0 .1.1.2.1.2 0 .1.1.1.2.2 0-.2.1-.2.2-.2zm11.5-1.3l-1.5.1-.1-.4.6-.3v2h1v-1.4z" class="st197"/><path d="M629.5 199.7l-.2.1-.1-.4.6-.3h-.4v2-1.4zm10 0l-.3.1-.1-.4.6-.3h-.2v2-1.4zm1 1.3l.7-.6c.1-.1.1-.1.2-.1s.1-.1.1-.1l.1-.1v-.1c0-.1 0-.2-.1-.2 0 0-.1-.1-.2-.1s-.2 0-.2.1l-.2.2-.3-.3.2-.2c.1-.1.1-.1.2-.1s.1-.1.2-.1h.3c.1 0 .2 0 .3.1.1 0 .2.1.2.1l.2.2c0 .1-.6.3-.6.3s.6.2.6.3c0 .1-.1.1-.1.2s-.1.1-.2.2-.2.1-.2.2l-.4.3h1.3v1h-2V201z" class="st197"/><circle cx="603" cy="204.5" r=".5" class="st193"/><circle cx="609" cy="204.5" r=".5" class="st193"/><circle cx="614" cy="204.5" r=".5" class="st193"/><circle cx="621" cy="204.5" r=".5" class="st193"/><circle cx="626" cy="204.5" r=".5" class="st193"/><circle cx="632" cy="204.5" r=".5" class="st193"/><circle cx="638" cy="204.5" r=".5" class="st193"/><circle cx="644" cy="204.5" r=".5" class="st193"/><path d="M693 214h-42c-1.4 0-2.5-1.1-2.5-2.5v-7c0-1.4 1.1-2.5 2.5-2.5h42c1.4 0 2.5 1.1 2.5 2.5v7c0 1.4-1.1 2.5-2.5 2.5z" class="st195"/><path d="M690.4 212h-2.8c-1.7 0-3.1-1.4-3.1-3.1v-2.8c0-1.7 1.4-3.1 3.1-3.1h2.8c1.7 0 3.1 1.4 3.1 3.1v2.8c0 1.8-1.4 3.1-3.1 3.1zm-11 0h-2.8c-1.7 0-3.1-1.4-3.1-3.1v-2.8c0-1.7 1.4-3.1 3.1-3.1h2.8c1.7 0 3.1 1.4 3.1 3.1v2.8c0 1.8-1.4 3.1-3.1 3.1zm-12 0h-2.8c-1.7 0-3.1-1.4-3.1-3.1v-2.8c0-1.7 1.4-3.1 3.1-3.1h2.8c1.7 0 3.1 1.4 3.1 3.1v2.8c0 1.8-1.4 3.1-3.1 3.1zm-11 0h-2.8c-1.7 0-3.1-1.4-3.1-3.1v-2.8c0-1.7 1.4-3.1 3.1-3.1h2.8c1.7 0 3.1 1.4 3.1 3.1v2.8c0 1.8-1.4 3.1-3.1 3.1z" class="st196"/><path d="M654.5 199.9l-1.4.1-.1-.4.6-.5h-.2v2h1v-1.2z" class="st197"/><path d="M655.2 201.6c-.2 0-.4 0-.5-.1-.1-.1-.3-.2-.3-.3l.3-.3.2.2c.1 0 .2.1.3.1.1 0 .2 0 .2-.1.1 0 .1-.1 0-.2.1-.1 0-.2 0-.2-.1 0-.2-.1-.3.3h-.2l-.1-.7.5-.3h-.9 1v-.3.5c.1 0 .2 0 .2.1.1 0 .1.1.2.1.1.1.1.1.1.2s.5.3.5.3-.5.2-.5.3c0 .1-.1.2-.2.2l-.2.2h-.3zm10.3-1.7l-.9.1-.1-.4.6-.6h.4v2-1.1zm2 1.1h-1.6l-.1-.2 1.2-1.8h.5v1h1v1h-1zm-1 0v-.7l-.6.7h.6zm10-1.1l-.2.1-.1-.4.6-.5h-.3v2-1.2zm1.9 1.7c-.2 0-.3 0-.5-.1-.1-.1-.2-.1-.4-.2l.3-.3c.1.1.2.1.3.2.1 0 .2.1.3.1.1 0 .2 0 .3-.1.1 0-.1-.2-.1-.2s.2-.2.1-.2-.2-.1-.3-.1h-.2c-.1 0-.1 0-.2.1l-.3-.2.1-.4h.7-.3v.2h.6s.2.1.3.1l.2.2s.1.2-.6.3c.7.1.7.2.7.3 0 .1-.1.2-.2.2-.1.1-.2.1-.3.2-.3-.1-.4-.1-.5-.1zm10.1-1.7l-.7.1-.1-.4.6-.5h-.8v2h1v-1.2z" class="st197"/><path d="M690 201.7c-.1 0-.3 0-.4-.1-.1 0-.2-.1-.3-.2-.1-.1-.1-.2-.2-.3 0-.1-.1-.3-.7-.5.6-.2.6-.3.7-.5 0-.1.1-.3.2-.4.1-.1.2-.2.3-.2.1-.1.3-.1.4-.1h.2c.1 0 .1 0 .2.1s.1.1.2.1.1.1.2.1l-.2.4s-.1 0-.1-.1h-.5l-.1.1c0 .1-.1.1-.1.2v.2c.1 0 .1-.1.2-.1h.3s.2 0 .3.1c.1 0 .2.1.2.1l.2.2c0 .1.1.2-.3.3.3.1.3.2.3.3 0 .1-.1.2-.2.2-.1.1-.2.1-.3.2-.3-.2-.4-.1-.5-.1zm0-.5c.1 0 .2 0 .3-.1.1-.1.1-.1.3-.2l-.2-.2c-.1-.1-.2-.1-.3-.1-.1 0-.2 0-.3.1l-.2.2c.1.1.1.2.2.2-.1.1 0 .1.2.1z" class="st197"/><circle cx="651" cy="204.5" r=".5" class="st193"/><circle cx="658" cy="204.5" r=".5" class="st193"/><circle cx="663" cy="204.5" r=".5" class="st193"/><circle cx="669" cy="204.5" r=".5" class="st193"/><circle cx="675" cy="204.5" r=".5" class="st193"/><circle cx="681" cy="204.5" r=".5" class="st193"/><circle cx="686" cy="204.5" r=".5" class="st193"/><circle cx="692" cy="204.5" r=".5" class="st193"/><path d="M160 314.6v-57c0-6.1 5-11.1 11.1-11.1h326.8c6.1 0 11.1-5 11.1-11.1v-27" class="st225"/><path d="M158.5 313.1h2.9v2.9h-2.9zm349-106.1h2.9v2.9h-2.9z" class="st199"/><path d="M273 391.6v-121c0-6.1 5-11.1 11.1-11.1h225.8c6.1 0 11.1-5 11.1-11.1v-41" class="st225"/><path d="M271.5 390.1h2.9v2.9h-2.9zm248-184.1h2.9v2.9h-2.9z" class="st199"/><path d="M385 314.6v-31c0-6.1 5-11.1 11.1-11.1h124.8c6.1 0 11.1-5 11.1-11.1v-53" class="st225"/><path d="M383.5 313.1h2.9v2.9h-2.9zm147-106.1h2.9v2.9h-2.9z" class="st199"/><path d="M498 391.6v-95c0-6.1 5-11.1 11.1-11.1h23.8c6.1 0 11.1-5 11.1-11.1v-66" class="st225"/><path d="M496.5 390.1h2.9v2.9h-2.9zm46-183.1h2.9v2.9h-2.9z" class="st199"/><path d="M947 391.6v-134c0-6.1-5-11.1-11.1-11.1H603.1c-6.1 0-11.1-5-11.1-11.1v-27" class="st225"/><path d="M945.5 390.1h2.9v2.9h-2.9zM590.5 207h2.9v2.9h-2.9z" class="st199"/><path d="M835 314.6v-44c0-6.1-5-11.1-11.1-11.1H591.1c-6.1 0-11.1-5-11.1-11.1v-41" class="st225"/><path d="M833.5 313.1h2.9v2.9h-2.9zM578.5 206h2.9v2.9h-2.9z" class="st199"/><path d="M722 391.6v-108c0-6.1-5-11.1-11.1-11.1H580.1c-6.1 0-11.1-5-11.1-11.1v-53" class="st225"/><path d="M720.5 390.1h2.9v2.9h-2.9zM567.5 207h2.9v2.9h-2.9z" class="st199"/><path d="M610 314.6v-18c0-6.1-5-11.1-11.1-11.1h-30.8c-6.1 0-11.1-5-11.1-11.1v-66" class="st225"/><path d="M608.5 313.1h2.9v2.9h-2.9zm-53-106.1h2.9v2.9h-2.9z" class="st199"/><path d="M728 0v222.4c0 6.1-5 11.1-11.1 11.1h-16.8c-6.1 0-11.1-5-11.1-11.1v-14" class="st226"/><path d="M687.5 207h2.9v2.9h-2.9z" class="st201"/><path d="M685.1 189.5h360.4" class="st227"/><circle cx="685.2" cy="189.5" r="1.7" class="st142"/><path d="M835 487.6V372.4" class="st225"/><path d="M833.5 486.1h2.9v2.9h-2.9zm0-115.1h2.9v2.9h-2.9z" class="st199"/><path d="M723 487.6v-39.2" class="st225"/><path d="M721.5 486.1h2.9v2.9h-2.9zm0-39.1h2.9v2.9h-2.9z" class="st199"/><path d="M610 487.6V372.4" class="st225"/><path d="M608.5 486.1h2.9v2.9h-2.9zm0-115.1h2.9v2.9h-2.9z" class="st199"/><path d="M160 372.4v115.2" class="st225"/><path d="M158.5 371h2.9v2.9h-2.9zm0 115.1h2.9v2.9h-2.9z" class="st199"/><path d="M273 448.4v39.2" class="st225"/><path d="M271.5 447h2.9v2.9h-2.9zm0 39.1h2.9v2.9h-2.9z" class="st199"/><path d="M385 372.4v115.2" class="st225"/><path d="M383.5 371h2.9v2.9h-2.9zm0 115.1h2.9v2.9h-2.9z" class="st199"/><path d="M498 448.4v39.2" class="st225"/><path d="M496.5 447h2.9v2.9h-2.9zm0 39.1h2.9v2.9h-2.9z" class="st199"/><path d="M727.1 89.5h318.4" class="st227"/><circle cx="727.2" cy="89.5" r="1.7" class="st142"/><text transform="translate(1057.523 95.17)" class="st228 st229">INTERNET</text><text transform="translate(1057.523 194.1)"><tspan class="st228 st229">16-PORT</tspan><tspan y="16" class="st228 st229"> 10 GIGABIT</tspan><tspan y="32" class="st228 st229"> ETHERNET</tspan><tspan y="48" class="st228 st229"> SWITCH</tspan></text><text transform="translate(1057.523 349.143)" class="st228 st229">8 SERVERS</text><text transform="translate(117.165 311.787)" class="st228 st230">NODE 1</text><text transform="translate(229.62 388.73)" class="st228 st230">NODE 2</text><text transform="translate(342.077 311.787)" class="st228 st230">NODE 3</text><text transform="translate(454.533 388.73)" class="st228 st230">NODE 4</text><text transform="translate(566.99 311.787)" class="st228 st230">NODE 5</text><text transform="translate(679.445 388.73)" class="st228 st230">NODE 6</text><text transform="translate(791.9 311.787)" class="st228 st230">NODE 7</text><text transform="translate(904.357 388.73)" class="st228 st230">NODE 8</text><text transform="translate(173.793 311.787)" class="st228 st230">192.168.1.11:9000</text><text transform="translate(286.248 388.73)" class="st228 st230">192.168.1.12:9000</text><text transform="translate(398.704 311.787)" class="st228 st230">192.168.1.13:9000</text><text transform="translate(511.16 388.73)" class="st228 st230">192.168.1.14:9000</text><text transform="translate(617.526 311.787)" class="st228 st230">192.168.1.15:9000</text><text transform="translate(728.615 388.73)" class="st228 st230">192.168.1.16:9000</text><text transform="translate(843.348 311.787)" class="st228 st230">192.168.1.17:9000</text><text transform="translate(954.893 388.73)" class="st228 st230">192.168.1.18:9000</text><text transform="translate(142.692 586.326)" class="st228 st230">EXPORT 1</text><text transform="translate(255.148 586.326)" class="st228 st230">EXPORT 2</text><text transform="translate(817.427 586.326)" class="st228 st230">EXPORT 7</text><text transform="translate(704.97 586.326)" class="st228 st230">EXPORT 6</text><text transform="translate(592.515 586.326)" class="st228 st230">EXPORT 5</text><text transform="translate(480.06 586.326)" class="st228 st230">EXPORT 4</text><text transform="translate(366.49 586.326)" class="st228 st230">EXPORT 3</text><path d="M919.4 370.5H751.6c-2.5 0-4.6-2.1-4.6-4.6v-45.8c0-2.5 2.1-4.6 4.6-4.6h167.8c2.5 0 4.6 2.1 4.6 4.6v45.8c0 2.6-2.1 4.6-4.6 4.6z" class="st231"/><circle cx="846.5" cy="339" r="3" class="st59"/><circle cx="858.5" cy="339" r="3" class="st59"/><circle cx="869.5" cy="339" r="3" class="st59"/><circle cx="881.5" cy="339" r="3" class="st59"/><circle cx="892.5" cy="339" r="3" class="st59"/><circle cx="852.5" cy="347" r="3" class="st59"/><circle cx="864.5" cy="347" r="3" class="st59"/><circle cx="875.5" cy="347" r="3" class="st59"/><circle cx="887.5" cy="347" r="3" class="st59"/><circle cx="898.5" cy="347" r="3" class="st59"/><circle cx="780.5" cy="343" r="10.5" class="st232"/><path d="M918.1 343.5h128.4" class="st227"/><circle cx="918.2" cy="343.5" r="1.7" class="st142"/><path d="M694.4 370.5H526.6c-2.5 0-4.6-2.1-4.6-4.6v-45.8c0-2.5 2.1-4.6 4.6-4.6h167.8c2.5 0 4.6 2.1 4.6 4.6v45.8c0 2.6-2.1 4.6-4.6 4.6z" class="st231"/><circle cx="621.5" cy="339" r="3" class="st59"/><circle cx="633.5" cy="339" r="3" class="st59"/><circle cx="644.5" cy="339" r="3" class="st59"/><circle cx="656.5" cy="339" r="3" class="st59"/><circle cx="667.5" cy="339" r="3" class="st59"/><circle cx="627.5" cy="347" r="3" class="st59"/><circle cx="639.5" cy="347" r="3" class="st59"/><circle cx="650.5" cy="347" r="3" class="st59"/><circle cx="662.5" cy="347" r="3" class="st59"/><circle cx="673.5" cy="347" r="3" class="st59"/><circle cx="555.5" cy="343" r="10.5" class="st232"/><path d="M244.4 370.5H76.6c-2.5 0-4.6-2.1-4.6-4.6v-45.8c0-2.5 2.1-4.6 4.6-4.6h167.8c2.5 0 4.6 2.1 4.6 4.6v45.8c0 2.6-2.1 4.6-4.6 4.6z" class="st231"/><circle cx="172.5" cy="339" r="3" class="st59"/><circle cx="183.5" cy="339" r="3" class="st59"/><circle cx="195.5" cy="339" r="3" class="st59"/><circle cx="206.5" cy="339" r="3" class="st59"/><circle cx="218.5" cy="339" r="3" class="st59"/><circle cx="178.5" cy="347" r="3" class="st59"/><circle cx="189.5" cy="347" r="3" class="st59"/><circle cx="201.5" cy="347" r="3" class="st59"/><circle cx="212.5" cy="347" r="3" class="st59"/><circle cx="224.5" cy="347" r="3" class="st59"/><circle cx="105.5" cy="343" r="10.5" class="st232"/><path d="M357.4 447.5H189.6c-2.5 0-4.6-2.1-4.6-4.6v-45.8c0-2.5 2.1-4.6 4.6-4.6h167.8c2.5 0 4.6 2.1 4.6 4.6v45.8c0 2.6-2.1 4.6-4.6 4.6z" class="st231"/><circle cx="284.5" cy="416" r="3" class="st59"/><circle cx="296.5" cy="416" r="3" class="st59"/><circle cx="307.5" cy="416" r="3" class="st59"/><circle cx="319.5" cy="416" r="3" class="st59"/><circle cx="330.5" cy="416" r="3" class="st59"/><circle cx="290.5" cy="424" r="3" class="st59"/><circle cx="302.5" cy="424" r="3" class="st59"/><circle cx="313.5" cy="424" r="3" class="st59"/><circle cx="325.5" cy="424" r="3" class="st59"/><circle cx="336.5" cy="424" r="3" class="st59"/><circle cx="218.5" cy="420" r="10.5" class="st232"/><path d="M469.4 370.5H301.6c-2.5 0-4.6-2.1-4.6-4.6v-45.8c0-2.5 2.1-4.6 4.6-4.6h167.8c2.5 0 4.6 2.1 4.6 4.6v45.8c0 2.6-2.1 4.6-4.6 4.6z" class="st231"/><circle cx="397.5" cy="339" r="3" class="st59"/><circle cx="408.5" cy="339" r="3" class="st59"/><circle cx="420.5" cy="339" r="3" class="st59"/><circle cx="431.5" cy="339" r="3" class="st59"/><circle cx="442.5" cy="339" r="3" class="st59"/><circle cx="403.5" cy="347" r="3" class="st59"/><circle cx="414.5" cy="347" r="3" class="st59"/><circle cx="426.5" cy="347" r="3" class="st59"/><circle cx="437.5" cy="347" r="3" class="st59"/><circle cx="448.5" cy="347" r="3" class="st59"/><circle cx="330.5" cy="343" r="10.5" class="st232"/><path d="M581.4 447.5H413.6c-2.5 0-4.6-2.1-4.6-4.6v-45.8c0-2.5 2.1-4.6 4.6-4.6h167.8c2.5 0 4.6 2.1 4.6 4.6v45.8c0 2.6-2.1 4.6-4.6 4.6z" class="st231"/><circle cx="509.5" cy="416" r="3" class="st59"/><circle cx="520.5" cy="416" r="3" class="st59"/><circle cx="532.5" cy="416" r="3" class="st59"/><circle cx="543.5" cy="416" r="3" class="st59"/><circle cx="555.5" cy="416" r="3" class="st59"/><circle cx="515.5" cy="424" r="3" class="st59"/><circle cx="526.5" cy="424" r="3" class="st59"/><circle cx="538.5" cy="424" r="3" class="st59"/><circle cx="549.5" cy="424" r="3" class="st59"/><circle cx="561.5" cy="424" r="3" class="st59"/><circle cx="443.5" cy="420" r="10.5" class="st232"/><path d="M806.4 447.5H638.6c-2.5 0-4.6-2.1-4.6-4.6v-45.8c0-2.5 2.1-4.6 4.6-4.6h167.8c2.5 0 4.6 2.1 4.6 4.6v45.8c0 2.6-2.1 4.6-4.6 4.6z" class="st231"/><circle cx="734.5" cy="416" r="3" class="st59"/><circle cx="745.5" cy="416" r="3" class="st59"/><circle cx="757.5" cy="416" r="3" class="st59"/><circle cx="768.5" cy="416" r="3" class="st59"/><circle cx="780.5" cy="416" r="3" class="st59"/><circle cx="740.5" cy="424" r="3" class="st59"/><circle cx="751.5" cy="424" r="3" class="st59"/><circle cx="763.5" cy="424" r="3" class="st59"/><circle cx="774.5" cy="424" r="3" class="st59"/><circle cx="786.5" cy="424" r="3" class="st59"/><circle cx="667.5" cy="420" r="10.5" class="st232"/><path d="M1031.4 447.5H863.6c-2.5 0-4.6-2.1-4.6-4.6v-45.8c0-2.5 2.1-4.6 4.6-4.6h167.8c2.5 0 4.6 2.1 4.6 4.6v45.8c0 2.6-2.1 4.6-4.6 4.6z" class="st231"/><circle cx="959.5" cy="416" r="3" class="st59"/><circle cx="970.5" cy="416" r="3" class="st59"/><circle cx="982.5" cy="416" r="3" class="st59"/><circle cx="993.5" cy="416" r="3" class="st59"/><circle cx="1005.5" cy="416" r="3" class="st59"/><circle cx="965.5" cy="424" r="3" class="st59"/><circle cx="976.5" cy="424" r="3" class="st59"/><circle cx="988.5" cy="424" r="3" class="st59"/><circle cx="999.5" cy="424" r="3" class="st59"/><circle cx="1011.5" cy="424" r="3" class="st59"/><circle cx="892.5" cy="420" r="10.5" class="st232"/><path d="M948 487.6v-39.2" class="st225"/><path d="M946.5 486.1h2.9v2.9h-2.9zm0-39.1h2.9v2.9h-2.9z" class="st199"/><text transform="translate(1057.523 538.177)"><tspan class="st228 st229">8 8TB</tspan><tspan y="16" class="st228 st229"> DRIVES</tspan></text><text transform="translate(929.883 586.326)" class="st228 st230">EXPORT 8</text><path d="M867.5 491.4c0-1.3-1.1-2.4-2.4-2.4h-60.2c-1.3 0-2.4 1.1-2.4 2.4v81.2c0 1.3 1.1 2.4 2.4 2.4h60.2c1.3 0 2.4-1.1 2.4-2.4v-81.2z" class="st205"/><path d="M835 574v-12.7c2.8-.1 5.5-.5 8.1-1.3l6.6 4.8c.1.1.3.2.4.3h.1c2 1.3 4.4 1.9 7 1.4 3.8-.7 6.8-3.8 7.4-7.5.7-4.1-1.3-7.9-4.5-9.8.2-.3 4-5.4 4.4-6.7h3.1" class="st233"/><circle cx="835.1" cy="529.2" r="29.5" class="st234"/><circle cx="807.5" cy="493" r="2" class="st59"/><circle cx="863.5" cy="493" r="2" class="st59"/><circle cx="807.5" cy="570" r="2" class="st59"/><circle cx="863.5" cy="570" r="2" class="st59"/><circle cx="835" cy="529.2" r="2.4" class="st59"/><circle cx="835" cy="529.2" r="2.4" class="st59"/><circle cx="835" cy="529.2" r="5.6" class="st235"/><path d="M857.9 551.3l-31.3-9.6h-.4c-.8 0-1.4.6-1.4 1.4 0 .5.2.9.6 1.1l26.1 19c1.1.7 2.4 1.1 3.7 1.1 3.8 0 6.8-3 6.8-6.8 0-2.8-1.7-5.2-4.1-6.2z" class="st183"/><circle cx="855" cy="557.5" r="4.5" class="st0"/><path d="M755.5 491.4c0-1.3-1.1-2.4-2.4-2.4h-60.2c-1.3 0-2.4 1.1-2.4 2.4v81.2c0 1.3 1.1 2.4 2.4 2.4h60.2c1.3 0 2.4-1.1 2.4-2.4v-81.2z" class="st205"/><path d="M723 574v-12.7c2.8-.1 5.5-.5 8.1-1.3l6.6 4.8c.1.1.3.2.4.3h.1c2 1.3 4.4 1.9 7 1.4 3.8-.7 6.8-3.8 7.4-7.5.7-4.1-1.3-7.9-4.5-9.8.2-.3 4-5.4 4.4-6.7h3.1" class="st233"/><circle cx="722.6" cy="529.2" r="29.5" class="st234"/><circle cx="694.5" cy="493" r="2" class="st59"/><circle cx="750.5" cy="493" r="2" class="st59"/><circle cx="694.5" cy="570" r="2" class="st59"/><circle cx="750.5" cy="570" r="2" class="st59"/><circle cx="722.5" cy="529.2" r="2.4" class="st59"/><circle cx="722.5" cy="529.2" r="2.4" class="st59"/><circle cx="722.5" cy="529.2" r="5.6" class="st235"/><path d="M745.4 551.3l-31.3-9.6h-.4c-.8 0-1.4.6-1.4 1.4 0 .5.2.9.6 1.1l26.1 19c1.1.7 2.4 1.1 3.7 1.1 3.8 0 6.8-3 6.8-6.8.1-2.8-1.6-5.2-4.1-6.2z" class="st183"/><circle cx="743" cy="557.5" r="4.5" class="st0"/><path d="M642.5 491.4c0-1.3-1.1-2.4-2.4-2.4h-60.2c-1.3 0-2.4 1.1-2.4 2.4v81.2c0 1.3 1.1 2.4 2.4 2.4h60.2c1.3 0 2.4-1.1 2.4-2.4v-81.2z" class="st205"/><path d="M610 574v-12.7c2.8-.1 5.5-.5 8.1-1.3l6.6 4.8c.1.1.3.2.4.3h.1c2 1.3 4.4 1.9 7 1.4 3.8-.7 6.8-3.8 7.4-7.5.7-4.1-1.3-7.9-4.5-9.8.2-.3 4-5.4 4.4-6.7h3.1" class="st233"/><circle cx="610.2" cy="529.2" r="29.5" class="st234"/><circle cx="582.5" cy="493" r="2" class="st59"/><circle cx="638.5" cy="493" r="2" class="st59"/><circle cx="582.5" cy="570" r="2" class="st59"/><circle cx="638.5" cy="570" r="2" class="st59"/><circle cx="610.1" cy="529.2" r="2.4" class="st59"/><circle cx="610.1" cy="529.2" r="2.4" class="st59"/><circle cx="610.1" cy="529.2" r="5.6" class="st235"/><path d="M632.9 551.3l-31.3-9.6h-.4c-.8 0-1.4.6-1.4 1.4 0 .5.2.9.6 1.1l26.1 19c1.1.7 2.4 1.1 3.7 1.1 3.8 0 6.8-3 6.8-6.8.1-2.8-1.6-5.2-4.1-6.2z" class="st183"/><circle cx="630" cy="557.5" r="4.5" class="st0"/><path d="M530.5 491.4c0-1.3-1.1-2.4-2.4-2.4h-60.2c-1.3 0-2.4 1.1-2.4 2.4v81.2c0 1.3 1.1 2.4 2.4 2.4h60.2c1.3 0 2.4-1.1 2.4-2.4v-81.2z" class="st205"/><path d="M498 574v-12.7c2.8-.1 5.5-.5 8.1-1.3l6.6 4.8c.1.1.3.2.4.3h.1c2 1.3 4.4 1.9 7 1.4 3.8-.7 6.8-3.8 7.4-7.5.7-4.1-1.3-7.9-4.5-9.8.2-.3 4-5.4 4.4-6.7h3.1" class="st233"/><circle cx="497.7" cy="529.2" r="29.5" class="st234"/><circle cx="469.5" cy="493" r="2" class="st59"/><circle cx="525.5" cy="493" r="2" class="st59"/><circle cx="469.5" cy="570" r="2" class="st59"/><circle cx="525.5" cy="570" r="2" class="st59"/><circle cx="497.6" cy="529.2" r="2.4" class="st59"/><circle cx="497.6" cy="529.2" r="2.4" class="st59"/><circle cx="497.6" cy="529.2" r="5.6" class="st235"/><path d="M520.5 551.3l-31.3-9.6h-.4c-.8 0-1.4.6-1.4 1.4 0 .5.2.9.6 1.1l26.1 19c1.1.7 2.4 1.1 3.7 1.1 3.8 0 6.8-3 6.8-6.8.1-2.8-1.7-5.2-4.1-6.2z" class="st183"/><circle cx="518" cy="557.5" r="4.5" class="st0"/><path d="M417.5 491.4c0-1.3-1.1-2.4-2.4-2.4h-60.2c-1.3 0-2.4 1.1-2.4 2.4v81.2c0 1.3 1.1 2.4 2.4 2.4h60.2c1.3 0 2.4-1.1 2.4-2.4v-81.2z" class="st205"/><path d="M385 574v-12.7c2.8-.1 5.5-.5 8.1-1.3l6.6 4.8c.1.1.3.2.4.3h.1c2 1.3 4.4 1.9 7 1.4 3.8-.7 6.8-3.8 7.4-7.5.7-4.1-1.3-7.9-4.5-9.8.2-.3 4-5.4 4.4-6.7h3.1" class="st233"/><circle cx="385.3" cy="529.2" r="29.5" class="st234"/><circle cx="357.5" cy="493" r="2" class="st59"/><circle cx="413.5" cy="493" r="2" class="st59"/><circle cx="357.5" cy="570" r="2" class="st59"/><circle cx="413.5" cy="570" r="2" class="st59"/><circle cx="385.2" cy="529.2" r="2.4" class="st59"/><circle cx="385.2" cy="529.2" r="2.4" class="st59"/><circle cx="385.2" cy="529.2" r="5.6" class="st235"/><path d="M408 551.3l-31.3-9.6h-.4c-.8 0-1.4.6-1.4 1.4 0 .5.2.9.6 1.1l26.1 19c1.1.7 2.4 1.1 3.7 1.1 3.8 0 6.8-3 6.8-6.8.1-2.8-1.6-5.2-4.1-6.2z" class="st183"/><circle cx="405" cy="557.5" r="4.5" class="st0"/><path d="M305.5 491.4c0-1.3-1.1-2.4-2.4-2.4h-60.2c-1.3 0-2.4 1.1-2.4 2.4v81.2c0 1.3 1.1 2.4 2.4 2.4h60.2c1.3 0 2.4-1.1 2.4-2.4v-81.2z" class="st205"/><path d="M273 574v-12.7c2.8-.1 5.5-.5 8.1-1.3l6.6 4.8c.1.1.3.2.4.3h.1c2 1.3 4.4 1.9 7 1.4 3.8-.7 6.8-3.8 7.4-7.5.7-4.1-1.3-7.9-4.5-9.8.2-.3 4-5.4 4.4-6.7h3.1" class="st233"/><circle cx="272.8" cy="529.2" r="29.5" class="st234"/><circle cx="244.5" cy="493" r="2" class="st59"/><circle cx="300.5" cy="493" r="2" class="st59"/><circle cx="244.5" cy="570" r="2" class="st59"/><circle cx="300.5" cy="570" r="2" class="st59"/><circle cx="272.7" cy="529.2" r="2.4" class="st59"/><circle cx="272.7" cy="529.2" r="2.4" class="st59"/><circle cx="272.7" cy="529.2" r="5.6" class="st235"/><path d="M295.6 551.3l-31.3-9.6h-.4c-.8 0-1.4.6-1.4 1.4 0 .5.2.9.6 1.1l26.1 19c1.1.7 2.4 1.1 3.7 1.1 3.8 0 6.8-3 6.8-6.8.1-2.8-1.7-5.2-4.1-6.2z" class="st183"/><circle cx="293" cy="557.5" r="4.5" class="st0"/><path d="M192.5 491.4c0-1.3-1.1-2.4-2.4-2.4h-60.2c-1.3 0-2.4 1.1-2.4 2.4v81.2c0 1.3 1.1 2.4 2.4 2.4h60.2c1.3 0 2.4-1.1 2.4-2.4v-81.2z" class="st205"/><path d="M160 574v-12.7c2.8-.1 5.5-.5 8.1-1.3l6.6 4.8c.1.1.3.2.4.3h.1c2 1.3 4.4 1.9 7 1.4 3.8-.7 6.8-3.8 7.4-7.5.7-4.1-1.3-7.9-4.5-9.8.2-.3 4-5.4 4.4-6.7h3.1" class="st233"/><circle cx="160.3" cy="529.2" r="29.5" class="st234"/><circle cx="132.5" cy="493" r="2" class="st59"/><circle cx="188.5" cy="493" r="2" class="st59"/><circle cx="132.5" cy="570" r="2" class="st59"/><circle cx="188.5" cy="570" r="2" class="st59"/><circle cx="160.2" cy="529.2" r="2.4" class="st59"/><circle cx="160.2" cy="529.2" r="2.4" class="st59"/><circle cx="160.2" cy="529.2" r="5.6" class="st235"/><path d="M183.1 551.3l-31.3-9.6h-.4c-.8 0-1.4.6-1.4 1.4 0 .5.2.9.6 1.1l26.1 19c1.1.7 2.4 1.1 3.7 1.1 3.8 0 6.8-3 6.8-6.8.1-2.8-1.6-5.2-4.1-6.2z" class="st183"/><circle cx="181" cy="557.5" r="4.5" class="st0"/><path d="M980.5 491.4c0-1.3-1.1-2.4-2.4-2.4h-60.2c-1.3 0-2.4 1.1-2.4 2.4v81.2c0 1.3 1.1 2.4 2.4 2.4h60.2c1.3 0 2.4-1.1 2.4-2.4v-81.2z" class="st205"/><path d="M948 574v-12.7c2.8-.1 5.5-.5 8.1-1.3l6.6 4.8c.1.1.3.2.4.3h.1c2 1.3 4.4 1.9 7 1.4 3.8-.7 6.8-3.8 7.4-7.5.7-4.1-1.3-7.9-4.5-9.8.2-.3 4-5.4 4.4-6.7h3.1" class="st233"/><circle cx="947.5" cy="529.2" r="29.5" class="st234"/><circle cx="919.5" cy="493" r="2" class="st59"/><circle cx="975.5" cy="493" r="2" class="st59"/><circle cx="919.5" cy="570" r="2" class="st59"/><circle cx="975.5" cy="570" r="2" class="st59"/><circle cx="947.4" cy="529.2" r="2.4" class="st59"/><circle cx="947.4" cy="529.2" r="2.4" class="st59"/><circle cx="947.4" cy="529.2" r="5.6" class="st235"/><path d="M970.3 551.3l-31.3-9.6h-.4c-.8 0-1.4.6-1.4 1.4 0 .5.2.9.6 1.1l26.1 19c1.1.7 2.4 1.1 3.7 1.1 3.8 0 6.8-3 6.8-6.8.1-2.8-1.6-5.2-4.1-6.2z" class="st183"/><circle cx="968" cy="557.5" r="4.5" class="st0"/><path d="M961.1 532.5l85.4.1" class="st227"/><circle cx="961.2" cy="532.5" r="1.7" class="st142"/></svg>