<svg xmlns="http://www.w3.org/2000/svg" id="Layer_1" viewBox="0 0 1165.51 600"><style>.st0{fill:#FFFFFF;} .st1{fill:#343435;} .st2{fill:#494949;} .st3{fill:#C4C4C4;} .st4{fill:#21211F;} .st5{fill:#E6E6E6;} .st6{opacity:0.56;fill:url(#SVGID_1_);} .st7{fill:#39B54A;} .st8{opacity:0.56;fill:url(#SVGID_2_);} .st9{opacity:0.56;fill:url(#SVGID_3_);} .st10{opacity:0.56;fill:url(#SVGID_4_);} .st11{opacity:0.56;fill:url(#SVGID_5_);} .st12{opacity:0.56;fill:url(#SVGID_6_);} .st13{opacity:0.56;fill:url(#SVGID_7_);} .st14{opacity:0.56;fill:url(#SVGID_8_);} .st15{opacity:0.56;fill:url(#SVGID_9_);} .st16{opacity:0.56;fill:url(#SVGID_10_);} .st17{opacity:0.56;fill:url(#SVGID_11_);} .st18{opacity:0.56;fill:url(#SVGID_12_);} .st19{opacity:0.56;fill:url(#SVGID_13_);} .st20{opacity:0.56;fill:url(#SVGID_14_);} .st21{opacity:0.56;fill:url(#SVGID_15_);} .st22{opacity:0.56;fill:url(#SVGID_16_);} .st23{opacity:0.56;fill:url(#SVGID_17_);} .st24{opacity:0.56;fill:url(#SVGID_18_);} .st25{opacity:0.56;fill:url(#SVGID_19_);} .st26{opacity:0.56;fill:url(#SVGID_20_);} .st27{opacity:0.56;fill:url(#SVGID_21_);} .st28{opacity:0.56;fill:url(#SVGID_22_);} .st29{opacity:0.56;fill:url(#SVGID_23_);} .st30{opacity:0.56;fill:url(#SVGID_24_);} .st31{opacity:0.56;fill:url(#SVGID_25_);} .st32{opacity:0.56;fill:url(#SVGID_26_);} .st33{opacity:0.56;fill:url(#SVGID_27_);} .st34{opacity:0.56;fill:url(#SVGID_28_);} .st35{opacity:0.56;fill:url(#SVGID_29_);} .st36{opacity:0.56;fill:url(#SVGID_30_);} .st37{opacity:0.56;fill:url(#SVGID_31_);} .st38{opacity:0.56;fill:url(#SVGID_32_);} .st39{opacity:0.56;fill:url(#SVGID_33_);} .st40{fill:none;stroke:#000000;stroke-miterlimit:10;} .st41{fill:none;stroke:#CCCCCC;stroke-width:2;stroke-miterlimit:10;} .st42{fill:#CCCCCC;} .st43{fill:none;stroke:#666666;stroke-width:2;stroke-miterlimit:10;} .st44{fill:#666666;} .st45{fill:none;stroke:#EF524F;stroke-width:2;stroke-miterlimit:10;stroke-dasharray:12,12;} .st46{fill:#EF524F;} .st47{fill:#62757C;} .st48{fill:#23363A;} .st49{fill:#FEFBF6;} .st50{fill:#F7F7F7;stroke:#23363A;stroke-width:6;stroke-miterlimit:10;} .st51{fill:none;stroke:#23363A;stroke-width:3;stroke-miterlimit:10;} .st52{fill:#F7F7F7;} .st53{fill:#23363A;stroke:#F7F7F7;stroke-width:2;stroke-miterlimit:10;} .st54{fill:#37474F;} .st55{fill:#EDEAE2;} .st56{fill:#4C626D;} .st57{fill:#E8EDEF;} .st58{fill:#515151;} .st59{fill:#939393;} .st60{opacity:0.56;fill:url(#SVGID_34_);} .st61{opacity:0.56;fill:url(#SVGID_35_);} .st62{opacity:0.56;fill:url(#SVGID_36_);} .st63{opacity:0.56;fill:url(#SVGID_37_);} .st64{opacity:0.56;fill:url(#SVGID_38_);} .st65{opacity:0.56;fill:url(#SVGID_39_);} .st66{opacity:0.56;fill:url(#SVGID_40_);} .st67{opacity:0.56;fill:url(#SVGID_41_);} .st68{opacity:0.56;fill:url(#SVGID_42_);} .st69{opacity:0.56;fill:url(#SVGID_43_);} .st70{opacity:0.56;fill:url(#SVGID_44_);} .st71{opacity:0.56;fill:url(#SVGID_45_);} .st72{opacity:0.56;fill:url(#SVGID_46_);} .st73{opacity:0.56;fill:url(#SVGID_47_);} .st74{opacity:0.56;fill:url(#SVGID_48_);} .st75{opacity:0.56;fill:url(#SVGID_49_);} .st76{opacity:0.56;fill:url(#SVGID_50_);} .st77{opacity:0.56;fill:url(#SVGID_51_);} .st78{opacity:0.56;fill:url(#SVGID_52_);} .st79{opacity:0.56;fill:url(#SVGID_53_);} .st80{opacity:0.56;fill:url(#SVGID_54_);} .st81{opacity:0.56;fill:url(#SVGID_55_);} .st82{opacity:0.56;fill:url(#SVGID_56_);} .st83{opacity:0.56;fill:url(#SVGID_57_);} .st84{opacity:0.56;fill:url(#SVGID_58_);} .st85{opacity:0.56;fill:url(#SVGID_59_);} .st86{opacity:0.56;fill:url(#SVGID_60_);} .st87{opacity:0.56;fill:url(#SVGID_61_);} .st88{opacity:0.56;fill:url(#SVGID_62_);} .st89{opacity:0.56;fill:url(#SVGID_63_);} .st90{opacity:0.56;fill:url(#SVGID_64_);} .st91{opacity:0.56;fill:url(#SVGID_65_);} .st92{opacity:0.56;fill:url(#SVGID_66_);} .st93{fill:none;stroke:#898989;stroke-miterlimit:10;} .st94{fill:#898989;} .st95{fill:none;stroke:#666666;stroke-miterlimit:10;} .st96{fill:none;stroke:#EF524F;stroke-miterlimit:10;} .st97{fill:none;stroke:#EF524F;stroke-miterlimit:10;stroke-dasharray:12.0065,12.0065;} .st98{fill:#B2B2B2;} .st99{fill:#5A5C5E;} .st100{fill:#DBDBDB;} .st101{fill:#6A6B6B;} .st102{fill:none;stroke:#EF524F;stroke-miterlimit:10;stroke-dasharray:11.6391,11.6391;} .st103{fill:none;stroke:#EF524F;stroke-miterlimit:10;stroke-dasharray:12.7731,12.7731;} .st104{fill:none;stroke:#EF524F;stroke-miterlimit:10;stroke-dasharray:11.9372,11.9372;} .st105{opacity:0.56;fill:url(#SVGID_67_);} .st106{opacity:0.56;fill:url(#SVGID_68_);} .st107{opacity:0.56;fill:url(#SVGID_69_);} .st108{opacity:0.56;fill:url(#SVGID_70_);} .st109{opacity:0.56;fill:url(#SVGID_71_);} .st110{opacity:0.56;fill:url(#SVGID_72_);} .st111{opacity:0.56;fill:url(#SVGID_73_);} .st112{opacity:0.56;fill:url(#SVGID_74_);} .st113{opacity:0.56;fill:url(#SVGID_75_);} .st114{opacity:0.56;fill:url(#SVGID_76_);} .st115{opacity:0.56;fill:url(#SVGID_77_);} .st116{opacity:0.56;fill:url(#SVGID_78_);} .st117{opacity:0.56;fill:url(#SVGID_79_);} .st118{opacity:0.56;fill:url(#SVGID_80_);} .st119{opacity:0.56;fill:url(#SVGID_81_);} .st120{opacity:0.56;fill:url(#SVGID_82_);} .st121{opacity:0.56;fill:url(#SVGID_83_);} .st122{opacity:0.56;fill:url(#SVGID_84_);} .st123{opacity:0.56;fill:url(#SVGID_85_);} .st124{opacity:0.56;fill:url(#SVGID_86_);} .st125{opacity:0.56;fill:url(#SVGID_87_);} .st126{opacity:0.56;fill:url(#SVGID_88_);} .st127{opacity:0.56;fill:url(#SVGID_89_);} .st128{opacity:0.56;fill:url(#SVGID_90_);} .st129{opacity:0.56;fill:url(#SVGID_91_);} .st130{opacity:0.56;fill:url(#SVGID_92_);} .st131{opacity:0.56;fill:url(#SVGID_93_);} .st132{opacity:0.56;fill:url(#SVGID_94_);} .st133{opacity:0.56;fill:url(#SVGID_95_);} .st134{opacity:0.56;fill:url(#SVGID_96_);} .st135{opacity:0.56;fill:url(#SVGID_97_);} .st136{opacity:0.56;fill:url(#SVGID_98_);} .st137{opacity:0.56;fill:url(#SVGID_99_);} .st138{fill:none;stroke:#CCCCCC;stroke-width:1.778;stroke-miterlimit:10;} .st139{fill:none;stroke:#EF524F;stroke-width:1.778;stroke-miterlimit:10;stroke-dasharray:10.6678,10.6678;} .st140{fill:#E5E5E5;} .st141{fill:none;stroke:#666666;stroke-width:1.778;stroke-miterlimit:10;} .st142{fill:#F47B67;} .st143{fill:none;stroke:#EAEAEA;stroke-width:0.8726;stroke-miterlimit:10;} .st144{fill:#727272;} .st145{fill:none;stroke:#EAEAEA;stroke-width:0.75;stroke-miterlimit:10;} .st146{fill:#FFFFFF;stroke:#9B9B9B;stroke-miterlimit:10;} .st147{fill:none;stroke:#9B9B9B;stroke-miterlimit:10;} .st148{fill:#9B9B9B;} .st149{opacity:0.56;fill:url(#SVGID_100_);} .st150{opacity:0.56;fill:url(#SVGID_101_);} .st151{opacity:0.56;fill:url(#SVGID_102_);} .st152{opacity:0.56;fill:url(#SVGID_103_);} .st153{opacity:0.56;fill:url(#SVGID_104_);} .st154{opacity:0.56;fill:url(#SVGID_105_);} .st155{opacity:0.56;fill:url(#SVGID_106_);} .st156{opacity:0.56;fill:url(#SVGID_107_);} .st157{opacity:0.56;fill:url(#SVGID_108_);} .st158{opacity:0.56;fill:url(#SVGID_109_);} .st159{opacity:0.56;fill:url(#SVGID_110_);} .st160{opacity:0.56;fill:url(#SVGID_111_);} .st161{opacity:0.56;fill:url(#SVGID_112_);} .st162{opacity:0.56;fill:url(#SVGID_113_);} .st163{opacity:0.56;fill:url(#SVGID_114_);} .st164{opacity:0.56;fill:url(#SVGID_115_);} .st165{opacity:0.56;fill:url(#SVGID_116_);} .st166{opacity:0.56;fill:url(#SVGID_117_);} .st167{opacity:0.56;fill:url(#SVGID_118_);} .st168{opacity:0.56;fill:url(#SVGID_119_);} .st169{opacity:0.56;fill:url(#SVGID_120_);} .st170{opacity:0.56;fill:url(#SVGID_121_);} .st171{opacity:0.56;fill:url(#SVGID_122_);} .st172{opacity:0.56;fill:url(#SVGID_123_);} .st173{opacity:0.56;fill:url(#SVGID_124_);} .st174{opacity:0.56;fill:url(#SVGID_125_);} .st175{opacity:0.56;fill:url(#SVGID_126_);} .st176{opacity:0.56;fill:url(#SVGID_127_);} .st177{opacity:0.56;fill:url(#SVGID_128_);} .st178{opacity:0.56;fill:url(#SVGID_129_);} .st179{opacity:0.56;fill:url(#SVGID_130_);} .st180{opacity:0.56;fill:url(#SVGID_131_);} .st181{opacity:0.56;fill:url(#SVGID_132_);} .st182{fill:#E8E8E8;stroke:#C6C6C6;stroke-width:1.0826;stroke-miterlimit:10;} .st183{fill:#F15A24;} .st184{fill:#FFFFFF;stroke:#C6C6C6;stroke-width:1.0826;stroke-miterlimit:10;} .st185{fill:#636363;} .st186{fill:none;stroke:#636363;stroke-miterlimit:10;} .st187{fill:none;stroke:#EF524F;stroke-miterlimit:10;stroke-dasharray:12,12;} .st188{fill:none;stroke:#636363;stroke-width:0.6802;stroke-miterlimit:10;} .st189{fill:#FFFFFF;stroke:#636363;stroke-width:0.6802;stroke-miterlimit:10;} .st190{fill:none;stroke:#EF524F;stroke-miterlimit:10;stroke-dasharray:11.4666,11.4666;} .st191{fill:#E8E8E8;stroke:#898989;stroke-width:0.5488;stroke-miterlimit:10;} .st192{fill:#FFFFFF;stroke:#898989;stroke-width:0.5488;stroke-miterlimit:10;} .st193{fill:#22B573;} .st194{fill:#E8E8E8;} .st195{fill:#A8A8A8;} .st196{fill:#777777;} .st197{fill:#4C4C4C;} .st198{fill:none;stroke:#3F3F3F;stroke-miterlimit:10;} .st199{fill:#3F3F3F;} .st200{fill:none;stroke:#5B5B5B;stroke-miterlimit:10;} .st201{fill:#5B5B5B;} .st202{fill:none;stroke:#F47B67;stroke-miterlimit:10;} .st203{fill:#E8E8E8;stroke:#C6C6C6;stroke-miterlimit:10;} .st204{fill:#FFFFFF;stroke:#C6C6C6;stroke-miterlimit:10;} .st205{fill:#BFBFBF;} .st206{fill:none;stroke:#929292;stroke-width:1.0006;stroke-miterlimit:10;} .st207{fill:none;stroke:#939393;stroke-width:2;stroke-miterlimit:10;} .st208{fill:#E8E8E8;stroke:#C6C6C6;stroke-width:1.0171;stroke-miterlimit:10;} .st209{fill:#FFFFFF;stroke:#C6C6C6;stroke-width:1.0171;stroke-miterlimit:10;} .st210{fill:none;stroke:#C6C6C6;stroke-width:1.0171;stroke-miterlimit:10;} .st211{fill:none;stroke:#929292;stroke-width:0.9465;stroke-miterlimit:10;} .st212{fill:#FFFFFF;stroke:#C6C6C6;stroke-width:0.9459;stroke-miterlimit:10;} .st213{fill:none;stroke:#939393;stroke-width:1.8919;stroke-miterlimit:10;} .st214{fill:none;stroke:#EAEAEA;stroke-width:0.6078;stroke-miterlimit:10;} .st215{fill:none;stroke:#CCCCCC;stroke-width:1.5;stroke-miterlimit:10;} .st216{fill:#B3B3B3;} .st217{fill:#FFFFFF;stroke:#000000;stroke-width:0.25;stroke-miterlimit:10;} .st218{clip-path:url(#SVGID_134_);} .st219{clip-path:url(#SVGID_136_);} .st220{clip-path:url(#SVGID_138_);} .st221{fill:#F5F5F5;} .st222{fill:none;stroke:#CECECE;stroke-width:0.413;stroke-miterlimit:10;} .st223{fill:none;stroke:#CCCCCC;stroke-width:0.8606;stroke-miterlimit:10;} .st224{fill:none;stroke:#000000;stroke-width:0.5553;stroke-miterlimit:10;} .st225{fill:none;stroke:#3F3F3F;stroke-width:0.5553;stroke-miterlimit:10;} .st226{fill:none;stroke:#5B5B5B;stroke-width:0.5553;stroke-miterlimit:10;} .st227{fill:none;stroke:#F47B67;stroke-width:0.5553;stroke-miterlimit:10;} .st228{fill:#E8E8E8;stroke:#C6C6C6;stroke-width:0.5553;stroke-miterlimit:10;} .st229{fill:#FFFFFF;stroke:#C6C6C6;stroke-width:0.5499;stroke-miterlimit:10;} .st230{fill:none;stroke:#929292;stroke-width:0.5557;stroke-miterlimit:10;} .st231{fill:#FFFFFF;stroke:#C6C6C6;stroke-width:0.5553;stroke-miterlimit:10;} .st232{fill:none;stroke:#939393;stroke-width:1.1106;stroke-miterlimit:10;} .st233{fill:none;stroke:#3F3F3F;stroke-width:0.5501;stroke-miterlimit:10;} .st234{fill:#E8E8E8;stroke:#C6C6C6;stroke-width:0.5595;stroke-miterlimit:10;} .st235{fill:none;stroke:#C6C6C6;stroke-width:0.5595;stroke-miterlimit:10;} .st236{fill:none;stroke:#929292;stroke-width:0.5207;stroke-miterlimit:10;} .st237{fill:#FFFFFF;stroke:#C6C6C6;stroke-width:0.5204;stroke-miterlimit:10;} .st238{fill:none;stroke:#939393;stroke-width:1.0407;stroke-miterlimit:10;} .st239{fill:none;stroke:#F47B67;stroke-width:0.5501;stroke-miterlimit:10;} .st240{font-family:&apos;Lato-Light&apos;;} .st241{font-size:17.0626px;} .st242{fill:none;stroke:#CECECE;stroke-width:0.3562;stroke-miterlimit:10;} .st243{fill:none;} .st244{font-size:23.0892px;} .st245{fill:#FFFFFF;stroke:#9B9B9B;stroke-width:0.474;stroke-miterlimit:10;} .st246{fill:#FFFFFF;stroke:#9B9B9B;stroke-width:0.4641;stroke-miterlimit:10;} .st247{fill:#FFFFFF;stroke:#9B9B9B;stroke-width:0.4611;stroke-miterlimit:10;} .st248{fill:#FFFFFF;stroke:#9B9B9B;stroke-width:0.4612;stroke-miterlimit:10;} .st249{fill:#FFFFFF;stroke:#9B9B9B;stroke-width:0.4783;stroke-miterlimit:10;} .st250{fill:#FFFFFF;stroke:#9B9B9B;stroke-width:0.4741;stroke-miterlimit:10;} .st251{fill:#FFFFFF;stroke:#9B9B9B;stroke-width:0.4764;stroke-miterlimit:10;} .st252{fill:#FFFFFF;stroke:#9B9B9B;stroke-width:0.4785;stroke-miterlimit:10;} .st253{fill:#FFFFFF;stroke:#9B9B9B;stroke-width:0.4207;stroke-miterlimit:10;} .st254{fill:#FFFFFF;stroke:#9B9B9B;stroke-width:0.4243;stroke-miterlimit:10;} .st255{fill:#FFFFFF;stroke:#9B9B9B;stroke-width:0.4302;stroke-miterlimit:10;} .st256{fill:#FFFFFF;stroke:#9B9B9B;stroke-width:0.4799;stroke-miterlimit:10;} .st257{fill:#FFFFFF;stroke:#9B9B9B;stroke-width:0.479;stroke-miterlimit:10;} .st258{fill:none;stroke:#9B9B9B;stroke-width:0.474;stroke-miterlimit:10;}</style><path d="M268.68 336.45h791v73h-791z" class="st142"/><path d="M268.68 435.45h791v99h-791z" class="st0"/><path d="M268.68 435.45h791v99h-791z" class="st222"/><text transform="translate(127.42 256.292)" class="st144 st240 st241">Containers</text><text transform="translate(127.42 256.292)" class="st144 st240 st241">Containers</text><text transform="translate(106.698 478.094)" class="st144 st240 st241">Infrastructure</text><text transform="translate(105.232 378.56)" class="st144 st240 st241">Orchestration</text><path d="M434.68 252.45h-167V107.68c0-1.78 1.45-3.23 3.23-3.23h160.55c1.78 0 3.23 1.44 3.23 3.23v144.77z" class="st44"/><path d="M267.68 252.45h167v58h-167z" class="st0"/><path d="M267.68 252.45h167v58h-167z" class="st242"/><path d="M642.68 252.45h-167v-87.77c0-1.78 1.44-3.23 3.23-3.23h160.55c1.78 0 3.23 1.44 3.23 3.23v87.77z" class="st44"/><path d="M475.68 252.45h167v58h-167z" class="st0"/><path d="M475.68 252.45h167v58h-167z" class="st242"/><path d="M849.68 252.45h-167v-87.77c0-1.78 1.44-3.23 3.23-3.23h160.55c1.78 0 3.23 1.44 3.23 3.23v87.77z" class="st44"/><path d="M682.68 252.45h167v58h-167z" class="st0"/><path d="M682.68 252.45h167v58h-167z" class="st242"/><path d="M1057.68 252.45h-167v-87.77c0-1.78 1.44-3.23 3.23-3.23h160.55c1.78 0 3.23 1.44 3.23 3.23v87.77z" class="st44"/><path d="M890.68 252.45h167v58h-167z" class="st0"/><path d="M890.68 252.45h167v58h-167z" class="st242"/><path d="M683.92 65.11h310.24v53.24H683.92z" class="st243"/><text transform="translate(705.65 81.93)"><tspan x="0" y="0" class="st142 st240 st244">Provision object storage as </tspan><tspan x="79.33" y="35.07" class="st142 st240 st244">Containers</tspan></text><text transform="translate(326.25 226.378)" class="st0 st240 st241">MINIO</text><text transform="translate(531.67 212.158)" class="st0 st240 st241">MySQL</text><text transform="translate(743.018 212.158)" class="st0 st240 st241">REDIS</text><text transform="translate(939.02 212.158)" class="st0 st240 st241">NODE JS</text><text transform="translate(313.305 287.317)" class="st144 st240 st241">DOCKER</text><text transform="translate(520.695 287.317)" class="st144 st240 st241">DOCKER</text><text transform="translate(728.085 287.317)" class="st144 st240 st241">DOCKER</text><text transform="translate(935.475 287.317)" class="st144 st240 st241">DOCKER</text><text transform="translate(365.896 378.56)" class="st0 st240 st241">DOCKER SWARM</text><text transform="translate(617.795 378.56)" class="st0 st240 st241">MESOSPHERE</text><text transform="translate(840.562 378.56)" class="st0 st240 st241">KUBERNETES</text><path d="M784.13 483.41c0-3.62 2.93-6.55 6.55-6.55v-17.01c0-1.87-1.52-3.39-3.39-3.39h-99.21c-1.87 0-3.39 1.52-3.39 3.39v17.01c3.62 0 6.55 2.93 6.55 6.55 0 3.62-2.93 6.55-6.55 6.55v20.1c0 1.87 1.52 3.39 3.39 3.39h99.21c1.87 0 3.39-1.52 3.39-3.39v-20.1c-3.61 0-6.55-2.94-6.55-6.55z" class="st245"/><path d="M784.13 483.41c0-3.62 2.93-6.55 6.55-6.55v-17.01c0-1.87-1.52-3.39-3.39-3.39h-99.21c-1.87 0-3.39 1.52-3.39 3.39v17.01c3.62 0 6.55 2.93 6.55 6.55 0 3.62-2.93 6.55-6.55 6.55v20.1c0 1.87 1.52 3.39 3.39 3.39h99.21c1.87 0 3.39-1.52 3.39-3.39v-20.1c-3.61 0-6.55-2.94-6.55-6.55z" class="st245"/><path d="M697.68 470.45h10v23h-10z" class="st246"/><path d="M694.68 473.45h3v3h-3zm0 7h3v3h-3zm0 7h3v3h-3z" class="st247"/><path d="M694.68 473.45h16v3h-16zm0 14h16v3h-16zm0-7h16v3h-16zm24-7h16v3h-16zm0 14h16v3h-16zm0-7h16v3h-16zm23-7h16v3h-16zm0 14h16v3h-16zm0-7h16v3h-16zm23-7h16v3h-16zm0 14h16v3h-16zm0-7h16v3h-16z" class="st248"/><path d="M691.68 502.45h3v11h-3zm3 0h3v11h-3zm7 0h3v11h-3zm3 0h3v11h-3zm7 0h3v11h-3zm3 0h3v11h-3zm7 0h3v11h-3zm3 0h3v11h-3zm14 0h3v11h-3zm3 0h3v11h-3zm7 0h3v11h-3zm3 0h3v11h-3zm7 0h3v11h-3zm3 0h3v11h-3zm7 0h3v11h-3zm3 0h3v11h-3zm7 0h3v11h-3zm3 0h3v11h-3z" class="st249"/><path d="M697.68 470.45h10v23h-10zm24 0h10v23h-10zm23 0h10v23h-10zm23 0h10v23h-10z" class="st246"/><path d="M594.7 454.39l-.02.02c-.6-.59-1.43-.96-2.35-.96h-57.31c-1.85 0-3.34 1.5-3.34 3.34v57.34c0 .93.38 1.76.98 2.37l.02-.02c.6.59 1.43.96 2.35.96h57.31c1.85 0 3.34-1.5 3.34-3.34v-57.34c0-.92-.38-1.76-.98-2.37z" class="st245"/><path d="M583.95 465.19s-.01 0 0 0c-.01 0-.01 0 0 0-.46-.46-1.09-.74-1.78-.74H545.2c-1.39 0-2.52 1.13-2.52 2.52v37.07c0 .67.27 1.27.71 1.7.44.44 1.04.71 1.7.71h9.76c.43 0 .85-.17 1.16-.47l1.12-1.07c.31-.3.73-.47 1.16-.47h9.06c.43 0 .85.17 1.16.47l1.12 1.07c.31.3.73.47 1.16.47h11.37c1.39 0 2.52-1.13 2.52-2.52v-36.97c0-.69-.28-1.31-.73-1.77z" class="st245"/><path d="M577.99 471.15c0-.01 0-.01 0 0-1.05-1.05-2.49-1.7-4.09-1.7h-20.37c-3.23 0-5.85 2.62-5.85 5.85v20.37c0 1.6.65 3.04 1.69 4.09 1.05 1.05 2.49 1.69 4.09 1.69h20.37c3.23 0 5.85-2.62 5.85-5.85v-20.37c0-1.59-.65-3.04-1.69-4.08z" class="st245"/><path d="M575.87 473.27s-.01 0 0 0c-.01 0-.01 0 0 0-.51-.51-1.2-.82-1.97-.82h-20.38c-1.56 0-2.83 1.27-2.83 2.83v20.38c0 .77.31 1.46.81 1.97.5.5 1.2.81 1.97.81h20.38c1.56 0 2.83-1.27 2.83-2.83v-20.38c0-.76-.31-1.46-.81-1.96zm-46.41-11.82c-1.45 0-2.62 1.24-2.49 2.72.11 1.32 1.34 2.28 2.67 2.28h8.04v-5h-8.22zm0 11c-1.45 0-2.62 1.24-2.49 2.72.11 1.32 1.34 2.28 2.67 2.28h8.04v-5h-8.22zm0 10c-1.45 0-2.62 1.24-2.49 2.72.11 1.32 1.34 2.28 2.67 2.28h8.04v-5h-8.22zm0 11c-1.45 0-2.62 1.24-2.49 2.72.11 1.32 1.34 2.28 2.67 2.28h8.04v-5h-8.22zm0 11c-1.45 0-2.62 1.24-2.49 2.72.11 1.32 1.34 2.28 2.67 2.28h8.04v-5h-8.22zm12.72 7h-2.5v8.93c0 1.12.65 2.19 1.71 2.54 1.72.57 3.29-.8 3.29-2.57v-8.89h-2.5zm11 0h-2.5v8.93c0 1.12.65 2.19 1.71 2.54 1.72.57 3.29-.8 3.29-2.57v-8.89h-2.5zm10 0h-2.5v8.93c0 1.12.65 2.19 1.71 2.54 1.72.57 3.29-.8 3.29-2.57v-8.89h-2.5zm11 0h-2.5v8.93c0 1.12.65 2.19 1.71 2.54 1.72.57 3.29-.8 3.29-2.57v-8.89h-2.5zm11 0h-2.5v8.93c0 1.12.65 2.19 1.71 2.54 1.72.57 3.29-.8 3.29-2.57v-8.89h-2.5zm-45.5-60.92v8.93h5v-8.89c0-1.77-1.57-3.14-3.29-2.57-1.06.33-1.71 1.41-1.71 2.53zm13.5-2.68c-1.38 0-2.5 1.21-2.5 2.7v8.89h5v-8.89c0-1.49-1.12-2.7-2.5-2.7zm10 0c-1.38 0-2.5 1.21-2.5 2.7v8.89h5v-8.89c0-1.49-1.12-2.7-2.5-2.7zm11 0c-1.38 0-2.5 1.21-2.5 2.7v8.89h5v-8.89c0-1.49-1.12-2.7-2.5-2.7zm11 0c-1.38 0-2.5 1.21-2.5 2.7v8.89h5v-8.89c0-1.49-1.12-2.7-2.5-2.7zm12.72 13.6h-8.22v5h8.22c1.38 0 2.5-1.12 2.5-2.5s-1.12-2.5-2.5-2.5zm0 11h-8.22v5h8.22c1.38 0 2.5-1.12 2.5-2.5s-1.12-2.5-2.5-2.5zm0 10h-8.22v5h8.22c1.38 0 2.5-1.12 2.5-2.5s-1.12-2.5-2.5-2.5zm0 11h-8.22v5h8.22c1.38 0 2.5-1.12 2.5-2.5s-1.12-2.5-2.5-2.5zm0 10h-8.22v5h8.22c1.38 0 2.5-1.12 2.5-2.5s-1.12-2.5-2.5-2.5zm283.78-48v53h5v-8h13v8h53v-53z" class="st245"/><path d="M943.69 492.45h-23.02c-.55 0-.99-.44-.99-.99v-26.02c0-.55.44-.99.99-.99h23.02c.55 0 .99.44.99.99v26.02c0 .55-.44.99-.99.99z" class="st250"/><path d="M911.68 477.45h-18.01c-.55 0-1-.45-1-1v-11.01c0-.55.45-1 1-1h18.01c.55 0 1 .45 1 1v11.01c0 .55-.45 1-1 1z" class="st251"/><path d="M911.68 495.45h-18c-.55 0-1-.45-1-1v-11c0-.55.45-1 1-1h18c.55 0 1 .45 1 1v11c0 .55-.45 1-1 1z" class="st252"/><path d="M917.68 468.45h5v2h-5zm0 5h5v2h-5zm0 5h5v2h-5zm0 5h5v2h-5zm0 5h5v2h-5zm25-20h5v2h-5zm0 5h5v2h-5zm0 5h5v2h-5zm0 5h5v2h-5zm0 5h5v2h-5z" class="st253"/><path d="M920.68 509.45h2v6h-2zm2 0h2v6h-2z" class="st254"/><path d="M940.682 518.45v2h-8v-2zm0 2v2h-8v-2zm-28-2v2h-8v-2zm0 2v2h-8v-2z" class="st255"/><path d="M875.18 444.45h-3.5v6h4.02c.72-.26.98 1.04.98 1.04v68.96h5v-69.5c0-3.59-2.91-6.5-6.5-6.5z" class="st245"/><path d="M931 525.45h-16.65c-.93 0-1.68-.75-1.68-1.68v-6.65c0-.93.75-1.68 1.68-1.68H931c.93 0 1.68.75 1.68 1.68v6.65c0 .93-.75 1.68-1.68 1.68z" class="st256"/><path d="M904.68 500.45h5v5h-5zm0 5h5v5h-5zm8-5h5v5h-5zm0 5h5v5h-5zm7-5h5v5h-5zm0 5h5v5h-5zm8-5h5v5h-5zm0 5h5v5h-5zm8-5h5v5h-5zm0 5h5v5h-5zm7-5h5v5h-5zm0 5h5v5h-5z" class="st257"/><path d="M417.68 449.57c0-1.17-.95-2.12-2.12-2.12H362.8c-1.17 0-2.12.95-2.12 2.12v71.76c0 1.17.95 2.12 2.12 2.12h52.76c1.17 0 2.12-.95 2.12-2.12v-71.76z" class="st245"/><path d="M389.68 523.45v-11.52c2.51-.07 4.94-.46 7.25-1.14l5.89 4.17c.12.09.24.18.37.27l.04.03c1.65 1.06 3.7 1.57 5.89 1.26 3.56-.5 6.52-3.27 7.09-6.81.57-3.56-1.19-6.77-4.03-8.42.18-.24 3.63-4.76 3.94-5.84h1.57" class="st258"/><path d="M389.55 508.72c-14.27 0-25.87-11.61-25.87-25.87 0-14.27 11.61-25.87 25.87-25.87s25.87 11.61 25.87 25.87c0 14.26-11.6 25.87-25.87 25.87z" class="st0"/><path d="M389.55 457.21c14.14 0 25.64 11.5 25.64 25.64s-11.5 25.64-25.64 25.64-25.64-11.5-25.64-25.64 11.5-25.64 25.64-25.64m0-.47c-14.42 0-26.11 11.69-26.11 26.11s11.69 26.11 26.11 26.11 26.11-11.69 26.11-26.11-11.69-26.11-26.11-26.11z" class="st148"/><circle cx="365.18" cy="450.95" r="1.29" class="st0"/><path d="M365.18 449.87c.6 0 1.09.49 1.09 1.09s-.49 1.09-1.09 1.09-1.09-.49-1.09-1.09.49-1.09 1.09-1.09m0-.42c-.83 0-1.5.67-1.5 1.5s.67 1.5 1.5 1.5 1.5-.67 1.5-1.5-.67-1.5-1.5-1.5z" class="st148"/><circle cx="414.18" cy="450.95" r="1.29" class="st0"/><path d="M414.18 449.87c.6 0 1.09.49 1.09 1.09s-.49 1.09-1.09 1.09-1.09-.49-1.09-1.09.49-1.09 1.09-1.09m0-.42c-.83 0-1.5.67-1.5 1.5s.67 1.5 1.5 1.5 1.5-.67 1.5-1.5-.67-1.5-1.5-1.5z" class="st148"/><circle cx="365.18" cy="518.95" r="1.29" class="st0"/><path d="M365.18 517.87c.6 0 1.09.49 1.09 1.09s-.49 1.09-1.09 1.09-1.09-.49-1.09-1.09.49-1.09 1.09-1.09m0-.42c-.83 0-1.5.67-1.5 1.5s.67 1.5 1.5 1.5 1.5-.67 1.5-1.5-.67-1.5-1.5-1.5z" class="st148"/><circle cx="414.18" cy="518.95" r="1.29" class="st0"/><path d="M414.18 517.87c.6 0 1.09.49 1.09 1.09s-.49 1.09-1.09 1.09-1.09-.49-1.09-1.09.49-1.09 1.09-1.09m0-.42c-.83 0-1.5.67-1.5 1.5s.67 1.5 1.5 1.5 1.5-.67 1.5-1.5-.67-1.5-1.5-1.5z" class="st148"/><circle cx="389.45" cy="482.85" r="6.84" class="st0"/><path d="M389.45 476.25c3.64 0 6.6 2.96 6.6 6.6s-2.96 6.6-6.6 6.6-6.6-2.96-6.6-6.6 2.97-6.6 6.6-6.6m0-.48c-3.91 0-7.07 3.17-7.07 7.07s3.17 7.07 7.07 7.07 7.07-3.17 7.07-7.07-3.16-7.07-7.07-7.07z" class="st148"/><path d="M407.35 513.65c-1.13 0-2.22-.33-3.16-.95l-23.02-16.75-.07-.05c-.26-.2-.41-.5-.41-.82 0-.57.46-1.04 1.04-1.04.08 0 .16.01.26.04l27.61 8.48c2.13.9 3.52 2.99 3.52 5.32.01 3.18-2.58 5.77-5.77 5.77z" class="st0"/><path d="M381.73 494.28c.06 0 .12.01.18.03l27.58 8.46c2.06.87 3.4 2.87 3.4 5.11 0 3.05-2.48 5.54-5.54 5.54-1.08 0-2.13-.31-3.03-.91l-.04-.02-22.88-16.66-.15-.11c-.2-.15-.32-.38-.32-.63 0-.45.36-.81.8-.81m0-.47c-.7 0-1.27.57-1.27 1.27 0 .41.2.77.5 1.01l23.1 16.81c.95.62 2.08.99 3.29.99 3.32 0 6.01-2.69 6.01-6.01 0-2.5-1.52-4.63-3.69-5.54l-27.62-8.48c-.1-.03-.2-.05-.32-.05z" class="st148"/><circle cx="407.68" cy="507.45" r="3.75" class="st0"/><path d="M407.68 503.94c1.93 0 3.51 1.57 3.51 3.51s-1.57 3.51-3.51 3.51-3.51-1.57-3.51-3.51 1.58-3.51 3.51-3.51m0-.49c-2.21 0-4 1.79-4 4s1.79 4 4 4 4-1.79 4-4-1.79-4-4-4z" class="st148"/><path d="M352.68 199.54l-5 2.84v-29.3c-.16-.16-.62-.32-1.05-.46-6.33-2.11-10.37-5.69-11.36-10.07-.81-3.55.49-7.3 3.56-10.27 2.8-2.71 6.72-5.83 9.88-8.34 1.14-.91 2.13-1.69 2.92-2.34.73-.62.51-1.57.18-1.97-.55-.66-1.46-.55-2.08-.1-.03.02-1.79 1.4-1.79 1.4l-2.72-3.67s1.78-1.31 1.85-1.36c2.66-1.95 6.19-1.58 8.22.86 1.01 1.22 1.48 2.76 1.33 4.33-.15 1.57-.9 2.99-2.12 3.99-.82.68-1.82 1.47-2.98 2.39-3.08 2.45-6.91 5.5-9.55 8.06-1.94 1.88-2.76 4.02-2.3 6.03.63 2.77 3.59 5.18 8.02 6.77v-14.65c13.09 4.32 22.11 19.4 25.11 27.77 0 0-13.23-4.49-20.11-6.86v24.95zm0-29.69c3.93 1.32 8.57 2.89 12.03 4.06-3.8-6.72-8.82-10.81-12.03-12.92v8.86z" class="st221"/><path d="M352.68 177.55l-5-1.51v-2.95l5 1.51z" class="st42"/><path d="M330.75 151.86c-.07.05-.17.05-.23-.02s-.04-.17.02-.23c1.56-1.43 7.75-7.56 14.68-14.34l2.72 3.67c0-.01-16.97 10.77-17.19 10.92z" class="st183"/></svg>